<?xml version="1.0" encoding="utf-8"?>
<svg width="300" height="300" version="1.2" viewBox="0 0 79.375 79.375" baseProfile="tiny-ps" xmlns="http://www.w3.org/2000/svg">
  <title>sansenlogo.svg</title>
  <g fill="#1f2f8e" stroke-width="1.2725">
    <path d="m22.243 44.459 3.304 3.3039s0.07166 0 0.07166-0.07165c-1.3646-2.3703-1.5801-6.1052 1.0775-8.6908l29.448-29.448h-8.9062l-24.995 24.995c-2.7294 2.7294-2.7294 7.1825 0 9.9119z" />
    <path d="m15.851 37.994 3.3039 3.304s0.07165 0 0.07165-0.07165c-1.3647-2.3702-1.5802-6.1051 1.0774-8.6908l22.984-22.984h-8.8344l-18.603 18.603c-2.7294 2.7294-2.7294 7.1825 0 9.84z" />
    <path d="m64.979 42.16-12.354-12.354-1.9393-1.9393 18.244-18.315h-8.8345l-31.459 31.459c-2.7294 2.7294-2.7294 7.1106 0 9.84l1.5083 1.5083-18.315 18.244h34.548l18.603-18.603c2.7294-2.7294 2.7294-7.1106 0-9.84zm-17.238-7.3979-16.663 16.591c-0.21546-2.0111 0.28713-4.2377 2.0111-5.8897l16.592-16.592c0.28713 1.9393-0.21546 4.1659-1.9393 5.8898z" />
  </g>
</svg>