<?xml version="1.0" encoding="UTF-8" standalone="no"?>
<!-- Created with Inkscape (http://www.inkscape.org/) -->

<svg
   version="1.1"
   id="svg7195"
   width="170.8"
   height="170.8"
   viewBox="0 0 170.80001 170.8"
   sodipodi:docname="linkedinwhite.svg"
   inkscape:version="1.1 (c4e8f9e, 2021-05-24)"
   xmlns:inkscape="http://www.inkscape.org/namespaces/inkscape"
   xmlns:sodipodi="http://sodipodi.sourceforge.net/DTD/sodipodi-0.dtd"
   xmlns="http://www.w3.org/2000/svg"
   xmlns:svg="http://www.w3.org/2000/svg">
  <defs
     id="defs7199" />
  <sodipodi:namedview
     id="namedview7197"
     pagecolor="#ffffff"
     bordercolor="#666666"
     borderopacity="1.0"
     inkscape:pageshadow="2"
     inkscape:pageopacity="0.0"
     inkscape:pagecheckerboard="0"
     showgrid="false"
     height="171.8px"
     width="170.8px"
     inkscape:zoom="2.6750793"
     inkscape:cx="98.127933"
     inkscape:cy="96.25883"
     inkscape:window-width="1440"
     inkscape:window-height="815"
     inkscape:window-x="0"
     inkscape:window-y="25"
     inkscape:window-maximized="0"
     inkscape:current-layer="g7201" />
  <g
     inkscape:groupmode="layer"
     inkscape:label="Image"
     id="g7201">
    <path
       style="fill:#ffffff;stroke-width:0.32"
       d="M 25.6,105.28 V 64.32 h 12.8 12.8 v 40.96 40.96 H 38.4 25.6 Z m 41.28,0 V 64.32 H 79.2 91.52 v 5.66265 5.662649 l 0.983923,-1.551488 c 1.258339,-1.984192 4.162931,-5.045661 6.216077,-6.551808 5.95206,-4.36631 12.15765,-5.907494 20.81155,-5.168637 8.41539,0.718493 13.55995,2.817063 18.06845,7.370496 4.07603,4.116653 6.21777,8.744148 7.73148,16.704813 0.66744,3.510115 0.69476,4.568592 0.81849,31.711325 l 0.12801,28.08 H 133.45899 120.64 l -0.0112,-23.76 c -0.009,-18.61118 -0.10552,-24.280083 -0.44661,-26.16 -0.99317,-5.473885 -2.92509,-8.542077 -6.4812,-10.293171 C 111.59514,84.989856 111.42236,84.96 107.52725,84.96 c -3.45678,0 -4.28592,0.105734 -6.03586,0.769715 -2.811668,1.066829 -5.167371,3.28257 -6.612606,6.219709 -2.209821,4.491011 -2.181546,4.11792 -2.313738,30.530576 l -0.118912,23.76 H 79.663066 66.88 Z M 33.843824,52.498605 C 23.063433,49.052387 20.085916,34.967776 28.532364,27.373692 c 5.80233,-5.216795 14.696202,-4.941032 20.265588,0.628355 6.67247,6.672468 5.505571,17.806276 -2.397747,22.877822 -3.449824,2.213747 -8.612922,2.87936 -12.556381,1.618736 z"
       id="path7511"
       sodipodi:nodetypes="cccccccccccccccssssssccccssssssccccsssss" />
  </g>
</svg>
