<?xml version="1.0" encoding="UTF-8" standalone="no"?>
<svg
   xmlns:dc="http://purl.org/dc/elements/1.1/"
   xmlns:cc="http://creativecommons.org/ns#"
   xmlns:rdf="http://www.w3.org/1999/02/22-rdf-syntax-ns#"
   xmlns:svg="http://www.w3.org/2000/svg"
   xmlns="http://www.w3.org/2000/svg"
   xmlns:sodipodi="http://sodipodi.sourceforge.net/DTD/sodipodi-0.dtd"
   xmlns:inkscape="http://www.inkscape.org/namespaces/inkscape"
   width="210mm"
   height="297mm"
   viewBox="0 0 210 297"
   version="1.1"
   id="svg29793"
   inkscape:version="1.0.2-2 (e86c870879, 2021-01-15)"
   sodipodi:docname="nie final.svg">
  <defs
     id="defs29787">
    <inkscape:path-effect
       effect="spiro"
       id="path-effect29701"
       is_visible="true"
       lpeversion="1" />
    <inkscape:path-effect
       effect="spiro"
       id="path-effect29703"
       is_visible="true"
       lpeversion="1" />
    <inkscape:path-effect
       effect="spiro"
       id="path-effect29705"
       is_visible="true"
       lpeversion="1" />
  </defs>
  <sodipodi:namedview
     id="base"
     pagecolor="#ffffff"
     bordercolor="#666666"
     borderopacity="1.0"
     inkscape:pageopacity="0.0"
     inkscape:pageshadow="2"
     inkscape:zoom="0.77877727"
     inkscape:cx="312.89506"
     inkscape:cy="457.08183"
     inkscape:document-units="mm"
     inkscape:current-layer="layer1"
     inkscape:document-rotation="0"
     showgrid="false"
     inkscape:window-width="1920"
     inkscape:window-height="1017"
     inkscape:window-x="-8"
     inkscape:window-y="-8"
     inkscape:window-maximized="1" />
  <metadata
     id="metadata29790">
    <rdf:RDF>
      <cc:Work
         rdf:about="">
        <dc:format>image/svg+xml</dc:format>
        <dc:type
           rdf:resource="http://purl.org/dc/dcmitype/StillImage" />
        <dc:title />
      </cc:Work>
    </rdf:RDF>
  </metadata>
  <g
     inkscape:label="Layer 1"
     inkscape:groupmode="layer"
     id="layer1">
    <path
       style="fill:#000000;fill-opacity:1;stroke:none;stroke-width:2.91607;stroke-linecap:butt;stroke-linejoin:bevel;stroke-miterlimit:4;stroke-dasharray:none;stroke-opacity:1;paint-order:stroke fill markers"
       d="M 127.5622,118.47788 V 95.571349 l -3.72449,4.944191 c -5.08716,6.75236 -7.89814,9.29752 -9.02456,8.17099 -0.6266,-0.62669 0.17307,-2.62571 2.68432,-6.70887 4.89768,-7.962961 11.08263,-21.143501 14.34113,-30.561821 2.92991,-8.46815 2.49485,-8.14587 8.14395,-6.03353 l 1.8544,0.69351 -1.96974,4.89935 c -1.08336,2.69465 -2.58353,6.31366 -3.33367,8.042 -1.16915,2.69407 -1.36358,7.37006 -1.36358,32.755001 v 29.61221 h -3.80405 -3.80371 z m 28.89899,17.8019 c -1.76272,-1.64214 -1.85001,-2.40034 -1.85001,-16.06055 0,-7.88528 -0.16095,-14.3369 -0.3577,-14.3369 -0.19639,0 -3.17722,1.52071 -6.62288,3.37944 -5.71907,3.08464 -7.38896,3.44454 -7.38896,1.59195 0,-0.36504 1.79171,-1.89671 3.98197,-3.40351 2.18993,-1.50684 5.42326,-4.04187 7.18483,-5.63328 l 3.20274,-2.893671 v -17.22999 -17.23016 h 3.80416 3.80359 v 32.37457 c 0,24.053241 0.26036,32.635281 1.01443,33.388831 1.21752,1.21769 16.53002,1.38663 18.40116,0.20312 0.85198,-0.53878 1.41934,-3.07066 1.80775,-8.06407 0.31128,-4.00328 0.75349,-7.46628 0.98291,-7.69573 0.2293,-0.22936 1.38194,-0.17471 2.56124,0.12084 2.04191,0.51253 2.12585,0.76624 1.75545,5.32415 -1.01397,12.48985 -1.304,13.8779 -3.31392,15.88823 -1.92356,1.92333 -2.47985,1.99974 -14.55831,1.99974 -11.46989,0 -12.71858,-0.14935 -14.40845,-1.7234 z m -83.177282,-4.56233 -1.38979,-3.75002 2.26405,-0.42376 c 1.24523,-0.23309 4.54646,-0.65792 7.33562,-0.94382 2.78973,-0.2861 6.30814,-0.73254 7.81916,-0.99201 l 2.74702,-0.4721 V 104.94287 84.750109 h -9.29809 -9.29808 v -2.11327 -2.11321 h 9.29808 9.29809 v -8.45278 -8.45297 h -6.76202 c -6.65001,0 -6.76258,-0.0354 -6.76258,-2.11321 v -2.11326 h 18.173809 18.173703 v 2.11326 c 0,2.09751 -0.0567,2.11321 -7.60763,2.11321 h -7.607643 v 8.45297 8.45278 h 8.029983 c 8.00252,0 8.03057,0.0126 8.03057,2.11321 0,2.1058 -0.0291,2.11327 -8.03057,2.11327 h -8.029983 v 19.441591 19.44165 h 1.958083 c 1.83442,0 9.54043,-1.19704 13.95411,-2.16772 1.65246,-0.36329 1.92113,-0.12976 1.69033,1.46892 -0.22457,1.55563 -1.42605,2.26397 -6.61365,3.89888 -5.63697,1.7765 -33.707192,8.63393 -35.342332,8.63393 -0.35249,0 -1.26613,-1.68736 -2.03024,-3.74991 z m 4.0882,-24.35592 c -1.29615,-5.69507 -2.55974,-11.210571 -2.8081,-12.256661 -0.34615,-1.45593 -0.0819,-1.9001 1.1255,-1.89449 2.38044,0.0126 9.38099,11.525921 11.68972,19.227821 0.4974,1.65949 0.0611,2.12548 -3.36092,3.59246 -2.16267,0.92715 -4.01268,1.68569 -4.11105,1.68569 -0.098,0 -1.239,-4.6597 -2.53515,-10.35482 z m 25.289832,8.72213 c -0.39915,-0.64569 5.11567,-23.581291 5.86535,-24.395291 0.5751,-0.62383 7.20087,2.66092 7.20087,3.56959 0,1.37897 -7.23967,16.186511 -9.39114,19.207821 -1.77773,2.49614 -2.8425,2.965 -3.67508,1.61788 z m 63.78339,-23.498791 c 0,-3.83492 0.36613,-4.57761 4.723,-9.58833 2.59715,-2.9873 5.27004,-6.47751 5.93867,-7.75597 0.66874,-1.27844 1.42177,-2.32453 1.67289,-2.32453 0.93927,0 6.26161,4.45865 6.26161,5.24522 0,1.05744 -9.39611,10.85916 -14.58117,15.2107 l -4.015,3.36961 z M 71.324908,62.731029 c -0.3017,-0.48765 0.0679,-1.72382 0.81999,-2.74707 6.65002,-9.04257 17.77906,-28.57586 20.03676,-35.16761 0.45387,-1.32428 7.935892,1.14107 7.790879,2.56684 -0.0639,0.63542 -0.35724,1.73514 -0.65108,2.44383 -0.38125,0.92098 0.978983,2.2838 4.766523,4.77593 2.91524,1.91813 7.1025,5.07507 9.30536,7.01561 l 4.00437,3.52831 -2.667,3.3184 c -1.4668,1.82533 -2.88811,3.3138 -3.15909,3.30816 -0.27122,-0.0121 -1.30401,-1.26385 -2.29511,-2.79571 -0.99169,-1.53171 -4.65603,-5.97587 -7.07237,-8.89223 -1.71562,-2.07046 -5.269473,-6.10714 -5.269473,-6.10714 l -3.010839,4.88764 c -4.52798,7.35064 -7.42429,10.99886 -14.45162,18.20087 -6.5729,6.73713 -7.21046,7.18029 -8.1473,5.66417 z m 63.844472,-9.67927 v -8.03019 h -8.02999 c -8.00182,0 -8.02999,-0.0121 -8.02999,-2.11326 0,-2.10581 0.0291,-2.11322 8.02999,-2.11322 h 8.02999 v -8.03023 -8.03032 h 3.80417 3.80359 v 18.17377 18.17372 h -3.80359 -3.80417 z m 26.76783,7.4667 c -0.30978,-0.30981 -0.56356,-3.92355 -0.56356,-8.03027 v -7.46662 h -7.18482 c -7.10043,0 -7.18529,-0.0252 -7.18529,-2.11326 0,-2.08756 0.0868,-2.11322 7.1533,-2.11322 h 7.15331 l 0.24304,-7.81895 0.24293,-7.81881 3.59264,-0.25996 3.59265,-0.25986 v 8.07876 8.07882 h 9.29808 9.29809 v 2.11322 2.11326 h -9.29809 -9.29808 v 8.03019 8.03027 h -3.24061 c -1.78212,0 -3.49381,-0.25361 -3.80359,-0.56357 z"
       id="path1779-2-9-3-9-0-4"
       sodipodi:nodetypes="ccssssscsssccccssssssscccccssssscsssssscssscccccccccccsscccsscccssscccsssssssscssssssssssssssscsscssssscscsacsssccsssccccccccccsscssscccccccccccccccss" />
    <path
       style="color:#000000;font-style:normal;font-variant:normal;font-weight:normal;font-stretch:normal;font-size:medium;line-height:normal;font-family:sans-serif;font-variant-ligatures:normal;font-variant-position:normal;font-variant-caps:normal;font-variant-numeric:normal;font-variant-alternates:normal;font-variant-east-asian:normal;font-feature-settings:normal;font-variation-settings:normal;text-indent:0;text-align:start;text-decoration:none;text-decoration-line:none;text-decoration-style:solid;text-decoration-color:#000000;letter-spacing:normal;word-spacing:normal;text-transform:none;writing-mode:lr-tb;direction:ltr;text-orientation:mixed;dominant-baseline:auto;baseline-shift:baseline;text-anchor:start;white-space:normal;shape-padding:0;shape-margin:0;inline-size:0;clip-rule:nonzero;display:inline;overflow:visible;visibility:visible;isolation:auto;mix-blend-mode:normal;color-interpolation:sRGB;color-interpolation-filters:linearRGB;solid-color:#000000;solid-opacity:1;vector-effect:none;fill:#000000;fill-opacity:1;fill-rule:nonzero;stroke:none;stroke-width:0.11546;stroke-linecap:round;stroke-linejoin:round;stroke-miterlimit:4;stroke-dasharray:none;stroke-dashoffset:0;stroke-opacity:1;paint-order:normal;color-rendering:auto;image-rendering:auto;shape-rendering:auto;text-rendering:auto;enable-background:accumulate;stop-color:#000000"
       d="m 108.33666,153.43271 c -0.60442,0.0235 -1.20655,0.078 -1.8029,0.16191 -4.7656,0.67077 -9.002743,3.15494 -12.459712,6.22716 -6.89329,6.12608 -10.97653,14.38728 -17.19161,20.08909 -1.78939,1.64169 -3.75301,3.08134 -5.86292,4.22623 -6.0845,3.30151 -13.46688,4.10565 -20.33419,2.70992 -6.88024,-1.39835 -11.43824,-3.89517 -17.22982,-8.01773 -3.33158,-2.37139 -3.75105,-3.18638 -6.15839,-5.19098 -2.46136,-2.97212 -4.34786,-2.05844 -1.63652,1.52631 1.80244,2.17735 6.16497,6.123 8.44876,7.7886 6.5162,4.75234 14.386278,7.85279 21.93685,7.87895 20.059174,1.40435 27.503776,-17.48159 40.006119,-29.29436 3.136,-2.78696 6.903103,-4.81871 10.910133,-4.89726 2.6617,-0.0522 3.88326,0.0987 5.75013,0.67247 1.86236,0.57248 3.19361,1.81068 4.47279,3.21704 1.76295,1.93822 2.64368,4.3494 2.43054,6.94961 -0.10449,1.2753 -0.25124,2.36615 -0.59508,3.84627 -0.46241,1.99094 -1.50542,3.97724 -2.08145,6.18609 -1.42113,4.67802 -1.96208,10.50109 4.71624,10.89076 0.90682,0.01 1.75303,-0.21793 2.49994,-0.56377 1.4825,-0.68645 2.52094,-1.7778 3.40791,-2.72277 1.92309,-2.04898 3.60772,-4.49768 5.31421,-6.72986 -0.0838,0.6721 -0.017,1.66073 0.0147,2.39177 0.0471,1.08693 0.27607,2.23079 0.84136,3.29534 0.65177,1.22741 1.66481,2.17865 2.82264,2.81795 1.15171,0.63583 3.67641,1.34211 5.7016,0.88132 2.39444,-0.58044 5.18185,-1.71377 7.32026,-2.89278 1.38021,1.18883 3.45125,2.27397 5.19665,2.58261 1.9201,0.3395 3.72714,0.0656 5.53213,-0.45751 7.62018,-3.09642 12.54399,-9.78765 21.1768,-8.3491 5.06141,0.92557 8.44184,4.83599 11.67506,7.36311 0.77196,0.60331 1.75256,0.56328 1.19789,-0.0764 -12.06023,-14.23305 -22.26338,-8.7364 -30.62995,-3.50504 -4.0537,2.87923 -7.79887,4.47162 -12.24566,1.36191 1.83466,-1.11284 4.89676,-2.64895 6.64159,-3.80595 0.76573,-0.50772 1.55951,-0.94999 2.35053,-1.81251 2.33239,-1.98315 3.22186,-4.46567 1.75929,-6.18508 -2.05851,-2.29568 -6.55317,-2.67138 -9.10045,-1.66134 -1.72913,0.70349 -3.33609,1.82368 -4.51286,3.37742 -1.1845,1.56389 -1.64147,3.59625 -1.52762,5.63468 0.0676,1.21229 0.54608,2.64604 1.11091,3.68166 -4.17867,2.46972 -7.33831,4.12145 -10.74247,1.72106 -1.6647,-1.29647 -1.56494,-4.72779 -1.29315,-6.51575 0.53043,-3.17424 1.60189,-6.26216 3.15194,-9.08253 0.39637,-0.73958 0.23323,-2.07994 -0.60582,-2.06946 -0.95935,0.012 -1.91698,1.78795 -2.33864,2.51344 -3.14408,5.54356 -5.60274,8.60329 -9.96423,13.25013 -2.53806,2.59444 -6.3976,3.24899 -7.31368,0.85452 -1.49578,-5.83713 3.56078,-10.8349 4.16781,-16.09854 0.28623,-3.49284 -0.93476,-7.0101 -3.2854,-9.59444 -1.68825,-1.85612 -3.88014,-3.16964 -6.23321,-3.89293 -1.76157,-0.54145 -3.59565,-0.75164 -5.40906,-0.68125 z m 48.60138,19.28177 c 0.25482,0.0178 0.49763,0.0613 0.7237,0.1326 2.44546,0.65254 1.68959,2.19116 0.89389,3.17156 -0.45226,0.49307 -1.11326,1.13169 -1.88049,1.64045 -1.96386,1.30218 -4.59622,2.93817 -6.56828,4.10372 -1.61151,-3.28996 -0.085,-6.23678 1.90959,-7.6486 1.2711,-0.75999 2.8529,-1.51927 4.92159,-1.39973 z"
       id="path2045-2-72-42-2-2-3-0-0"
       sodipodi:nodetypes="cssssssccsccsssssccsscsssccsccscccscccssccccsccccssscscccccs" />
    <path
       style="fill:#000000;fill-opacity:1;stroke:#000000;stroke-width:0.929012;stroke-linecap:round;stroke-linejoin:round;stroke-miterlimit:4;stroke-dasharray:none;stroke-opacity:1"
       d="m 131.23151,157.98389 3.39775,-2.2629 1.03094,7.75256 z"
       id="path1163-07-7-7-5-8-6"
       inkscape:path-effect="#path-effect29701"
       inkscape:original-d="m 131.23151,157.98389 3.39775,-2.2629 c -1.03429,1.71312 2.46091,6.42698 1.03094,7.75256 -1.70349,-1.1981 -2.25389,-6.47605 -4.42869,-5.48966 z"
       sodipodi:nodetypes="cccc" />
    <path
       style="fill:#000000;fill-opacity:1;stroke:#000000;stroke-width:0.929012;stroke-linecap:round;stroke-linejoin:round;stroke-miterlimit:4;stroke-dasharray:none;stroke-opacity:1"
       d="m 141.12849,153.91577 4.3384,1.51912 -5.2772,7.51118 z"
       id="path1163-3-6-2-8-8-8-17"
       inkscape:path-effect="#path-effect29703"
       inkscape:original-d="m 141.12849,153.91577 4.3384,1.51912 c -2.25528,0.65579 -2.98902,7.50468 -5.2772,7.51118 -0.51738,-2.38912 3.60095,-8.15145 0.9388,-9.0303 z"
       sodipodi:nodetypes="cccc" />
    <path
       style="fill:#000000;fill-opacity:1;stroke:#000000;stroke-width:0.929012;stroke-linecap:round;stroke-linejoin:round;stroke-miterlimit:4;stroke-dasharray:none;stroke-opacity:1"
       d="m 151.05883,160.01967 0.90486,4.31769 -8.39704,1.79376 z"
       id="path1163-3-2-4-1-1-69-6-1"
       inkscape:path-effect="#path-effect29705"
       inkscape:original-d="m 151.05883,160.01967 0.90486,4.31769 c -1.9067,-1.05636 -6.89641,3.29659 -8.39704,1.79376 1.23496,-1.90272 8.65394,-3.784 7.49218,-6.11145 z"
       sodipodi:nodetypes="cccc" />
    <path
       id="rect2142-3-7-8-1-4-6"
       style="fill:none;fill-opacity:1;stroke:#000000;stroke-width:3.69515;stroke-linecap:round;stroke-linejoin:round;stroke-miterlimit:4;stroke-dasharray:none;stroke-opacity:1;paint-order:stroke markers fill"
       d="M 34.523398,10.100458 H 186.91795 c 15.03066,0.0111 15.14012,0.30797 15.14012,13.539321 V 190.95257 c -0.49071,12.70481 -0.47489,12.46518 -13.29426,12.45888 l -163.204702,-0.0801 c -10.23885,0.0558 -10.3423,-1.31885 -10.27695,-12.37872 l 0.97182,-164.418041 c -0.38309,-17.927561 1.16176,-16.434101 18.26942,-16.434101 z"
       sodipodi:nodetypes="ccccccccc" />
    <path
       style="fill:#000000;stroke:#000000;stroke-width:0.339234;stroke-miterlimit:4;stroke-dasharray:none;stroke-opacity:1"
       d="m 49.048808,178.88628 -1.78882,-5.33687 -0.75014,-2.40984 c -0.76515,-2.46104 -1.59288,-4.47015 -2.19859,-5.33862 l -0.33841,-0.48598 -0.25851,0.39647 c -0.32433,0.49789 -0.76515,0.70898 -1.34892,0.64585 -0.44417,-0.048 -1.03729,-0.39976 -1.1778,-0.69851 -0.15241,-0.32376 0.11777,-1.52706 0.46738,-2.082 l 0.36704,-0.58328 0.76042,0.30679 0.75984,0.30676 -0.30169,-0.98872 c -0.16627,-0.54378 -0.38795,-1.62924 -0.49359,-2.41222 -0.29489,-2.1923 -0.86561,-3.15901 -2.75476,-4.66459 -1.07504,-0.85672 -2.84539,-1.70449 -2.88476,-1.38115 -0.0436,0.36309 0.37583,1.90353 1.00473,3.68116 0.34777,0.98502 0.8215,2.44422 1.05184,3.24241 0.56044,1.942 0.85002,2.53465 1.47743,3.02388 0.27687,0.21583 0.46749,0.40939 0.42292,0.43025 -0.17607,0.0828 -0.85151,-0.15053 -1.10899,-0.38308 -0.1964,-0.17771 -0.46207,-0.23319 -0.94804,-0.19847 -0.78408,0.0559 -1.26855,-0.2123 -1.80186,-0.9977 -0.2293,-0.33787 -0.5116,-0.57693 -0.85879,-0.72793 -0.5422,-0.23596 -0.8432,-0.66369 -0.81803,-1.16091 0.0194,-0.39801 0.26867,-0.4437 0.74044,-0.13636 0.33506,0.21815 0.44902,0.37351 0.55663,0.75762 0.13093,0.46899 0.16014,0.49101 0.98106,0.74898 l 0.84563,0.26583 -0.21914,-0.53588 c -0.12077,-0.29467 -0.47766,-1.21788 -0.79333,-2.05167 -0.54658,-1.44157 -0.59889,-1.53745 -1.07412,-1.95806 -0.61332,-0.54304 -1.27871,-0.6117 -1.86583,-0.45895 -0.81757,0.21247 -1.72196,1.2319 -1.49208,2.11574 0.27641,1.06325 1.40664,2.25471 3.07815,3.29415 0.67302,0.41886 1.68837,0.88407 2.68733,1.23151 0.88303,0.30714 1.58272,0.56914 1.55512,0.58223 -0.37339,0.17578 -1.89457,0.21506 -2.72473,0.0705 -1.70788,-0.29734 -3.30711,-1.32621 -4.32385,-2.78229 -1.27629,-1.85472 -1.21613,-2.31876 -1.09987,-3.67621 0.0786,-0.45653 1.15171,-1.77471 1.55905,-1.96537 0.55675,-0.26039 1.23115,-0.28837 1.86791,-0.0769 0.35631,0.11821 0.63711,0.14987 0.62395,0.0703 -0.0144,-0.0796 -0.0969,-0.52167 -0.18566,-0.98236 -0.14779,-0.76442 -0.0587,-2.33076 0.15032,-2.65181 0.15911,-0.24464 3.02482,-0.49199 6.25145,4.08775 0.72879,1.03416 1.01143,1.32452 1.18358,4.93497 l 0.0878,1.84313 0.58827,0.60138 c 0.45525,0.46537 0.75256,0.92045 1.31358,2.01202 0.70073,1.36297 0.75014,1.51299 1.46299,4.4327 0.40584,1.66211 1.4571,4.5604 1.71308,5.28771 0.65038,1.84671 1.22156,4.41167 3.42638,7.65685 l 2.20343,3.24232 c 0.73848,0.44417 1.35527,0.34966 2.09386,0.79375 l 0.25263,-3.18506 c 0.33749,-4.26062 0.19443,-6.04996 0.64392,-10.74158 0.63283,-6.60242 0.49417,-8.30695 -1.18173,-14.50385 -0.40873,-1.51238 -1.8417,-6.94545 -3.18438,-12.07356 -1.34268,-5.12812 -2.47927,-9.40571 -2.52626,-9.50579 -0.0616,-0.13035 -0.13,-0.1333 -0.24108,-0.0112 -0.0853,0.0943 -0.37097,0.30235 -0.63468,0.4626 -0.88015,0.53534 -1.97655,0.28372 -2.45028,-0.56225 -0.15368,-0.27449 -0.25263,-0.30301 -0.8118,-0.23367 -1.4959,0.18558 -6.59668,-0.58897 -11.51491,-1.74872 -1.86595,-0.44 -2.60062,-0.72836 -3.35318,-1.31647 -1.56725,-1.2251 -1.93291,-3.0338 -0.87865,-4.34823 0.40249,-0.50159 0.56875,-0.61845 1.33541,-0.93693 1.56043,-0.64829 2.82599,-0.44418 5.57935,0.89954 0.81665,0.39845 1.49013,0.70859 1.4974,0.689 0.0104,-0.0194 -0.2599,-0.30656 -0.59312,-0.63799 -1.3145,-1.3073 -2.47488,-3.272 -2.71584,-4.5984 -0.33945,-1.87004 0.49255,-3.70328 1.98995,-4.38369 0.77496,-0.3519 1.37859,-0.3904 3.24846,-0.20624 1.74517,0.17181 2.70914,-0.016 3.7357,-0.72784 0.88442,-0.6136 1.3548,-1.10141 3.09801,-3.21477 1.38009,-1.67254 2.19374,-2.52583 2.5841,-2.70952 0.12851,-0.0605 2.03221,-1.79647 3.69448,-0.69767 l 0.23081,0.15256 0.28172,0.35441 c 0.45295,0.569 0.54116,1.56134 0.25412,2.85619 -0.13577,0.61365 -0.56736,2.44082 -0.95923,4.06035 -1.06812,4.41724 -2.67509,12.33692 -2.55443,12.59251 0.0704,0.14924 0.45722,-0.66709 0.75799,-1.59864 0.17838,-0.55289 0.50329,-1.29333 0.72197,-1.64543 0.46507,-0.748 1.10656,-1.50524 1.236,-1.45864 0.14697,0.0531 0.0553,1.31914 -0.13625,1.8906 -0.23992,0.71624 -0.62025,1.28195 -1.41542,2.10554 -0.36855,0.38159 -0.75845,0.90678 -0.86606,1.16713 l -0.19628,0.47307 0.3025,-0.13834 c 0.45572,-0.20842 1.39983,-1.23331 1.99884,-2.16912 0.4795,-0.74961 1.49301,-2.61971 6.55638,-12.10183 0.82923,-1.55281 1.53134,-2.99217 1.56032,-3.19863 0.0694,-0.49078 -0.17261,-0.98863 -0.53435,-1.09875 -0.46992,-0.14315 -1.58849,0.21777 -2.88614,0.93126 -1.1613,0.63862 -2.7237,1.73038 -3.2338,2.25971 -0.14398,0.14916 -0.29581,0.25917 -0.33703,0.24425 -0.13231,-0.048 1.47119,-1.43049 2.45803,-2.11904 0.63179,-0.44131 1.41542,-0.86803 2.32605,-1.26731 1.34522,-0.58973 1.38298,-0.59866 1.86352,-0.43699 0.96201,0.32363 1.11384,1.41815 0.40007,2.87782 -0.69934,1.42906 -5.85393,11.6544 -6.44889,12.79282 -1.21221,2.31925 -2.27075,3.60885 -3.61008,4.39823 l -0.73213,0.43152 0.34188,0.86575 c 0.32813,0.83253 4.52267,16.9071 5.99778,22.98844 1.07262,4.42127 1.37617,6.83648 1.19859,9.5312 -0.10172,1.54728 -0.16488,1.57385 0.94561,-0.39966 1.4533,-2.58304 6.1054,-11.51582 6.46378,-12.40974 0.16927,-0.42401 0.16292,-0.45068 -0.31278,-1.28466 -0.26763,-0.46837 -0.76619,-1.2354 -1.10795,-1.70446 -0.89954,-1.2333 -2.46379,-4.57739 -2.78385,-5.95046 -1.04929,-4.50098 -0.47234,-7.52267 1.66563,-8.72213 1.04063,-0.58412 1.74332,-0.67193 2.67912,-0.33502 0.94215,0.33905 1.58168,1.00428 2.01143,2.09053 0.15713,0.39824 0.2943,0.71993 0.30492,0.71489 0.009,-0.006 0.16292,-0.16744 0.33853,-0.3603 0.83697,-0.92548 2.27941,-1.13718 3.84192,-0.56384 1.62383,0.59586 2.47292,1.48173 3.48792,3.63801 l 0.61344,1.30313 0.63953,-0.22407 c 0.83108,-0.29128 1.53954,-0.27217 2.08798,0.0566 0.38067,0.22824 0.48435,0.37196 0.76376,1.05559 0.77,1.88782 0.31902,4.26105 -1.79759,5.71751 -5.35617,3.68562 -5.00864,2.57465 -7.01706,2.88077 -0.33703,0.0514 -0.99018,0.31636 -1.45133,0.26884 -0.82865,-0.0849 -0.69969,0.085 -0.98868,0.43627 -0.19351,0.23557 -0.58088,0.32431 -1.00716,0.49567 -0.61586,0.24755 -0.72404,-0.0242 -0.90774,0.5382 -0.38645,1.18161 -5.31992,9.66886 -7.51654,12.93092 l -1.06627,1.58388 -0.20564,1.68413 c -0.40006,3.27511 -0.10772,8.55098 -0.25262,11.08189 -0.18278,3.19702 0.34811,3.77711 -1.09733,5.77793 -3.00507,-2.50051 -3.41033,-0.61044 -8.15226,-10.68614 z m 29.13844,-27.16542 c 1.67833,-1.39886 2.41531,-3.41931 1.84459,-5.05887 -0.3637,-1.04605 -1.13901,-1.2756 -2.35954,-0.69904 -1.4392,0.67959 -5.00367,2.99845 -7.17131,4.66492 -1.44833,1.11344 -1.46784,1.13231 -1.21025,1.1618 0.16383,0.0189 0.21279,0.11129 0.27387,0.51938 0.098,0.65399 0.0694,0.62732 0.54555,0.50352 0.22941,-0.0595 0.61828,-0.0548 0.86502,0.0112 0.70465,0.18723 0.9597,0.11876 1.79124,-0.48006 0.73329,-0.52796 2.17976,-1.15621 2.25585,-0.9796 0.0612,0.14081 -0.12793,0.72271 -0.34476,1.0635 -0.33368,0.5249 -1.25239,0.90565 -2.09917,0.87016 -0.50029,-0.0209 -0.86122,0.049 -1.2883,0.25016 -0.44856,0.21108 -0.72255,0.25898 -1.12111,0.19609 -0.51842,-0.0816 -0.52812,-0.0782 -0.5422,0.19038 -0.0194,0.35097 0.0897,0.41426 0.80741,0.47448 0.86363,0.0725 2.06465,-0.13835 3.44808,-0.60526 0.67163,-0.22654 1.32871,-0.44136 1.46011,-0.4772 0.49082,-0.13354 2.31104,-1.16053 2.84492,-1.60513 z m -9.9241,2.43752 c 0.20621,-0.27664 -0.13324,-1.07378 -0.44706,-1.05064 -0.49405,0.0359 -1.1434,0.55293 -1.0217,0.81235 0.0291,0.0605 0.20471,0.24838 0.39175,0.41737 0.26532,0.23968 0.40353,0.27746 0.62856,0.1715 0.15899,-0.0748 0.36081,-0.23256 0.44845,-0.35058 z m -24.97359,10.94291 c 0.0961,-0.31418 0.0883,-0.32994 -0.28507,-0.60681 -0.21152,-0.15624 -0.44764,-0.25433 -0.52511,-0.21792 -0.20621,0.0972 -0.11061,0.53692 0.16142,0.73919 0.37778,0.28105 0.21048,0.37037 -0.1934,0.103 -0.28172,-0.18645 -0.38367,-0.19873 -0.43644,-0.0525 -0.0931,0.25874 -0.0195,0.38385 0.3099,0.52083 0.369,0.15332 0.84747,-0.086 0.96928,-0.48607 z m 22.67178,-12.48274 c -0.0776,-0.0748 -0.16095,-0.12636 -0.18473,-0.1151 -0.0242,0.0112 -0.009,0.0948 0.0339,0.18586 0.0437,0.0911 0.12562,0.14294 0.18474,0.11521 0.0586,-0.0281 0.0436,-0.11134 -0.034,-0.18597 z m 1.87518,-1.15658 c 0.005,-0.26258 -0.0494,-0.58849 -0.11396,-0.72411 -0.20413,-0.43462 -0.4287,-2.04301 -0.40584,-2.91182 0.009,-0.46318 0.12158,-1.41854 0.24386,-2.12314 0.12215,-0.70459 0.27352,-1.57644 0.33656,-1.9373 0.30978,-1.77781 -0.48447,-3.81306 -1.68363,-4.31347 -0.79864,-0.33391 -1.93961,0.049 -2.62867,0.88145 -0.97125,1.17328 -1.11627,3.52755 -0.39857,6.47495 0.3525,1.44728 1.13416,3.44097 1.73305,4.42024 l 0.4451,0.72746 -0.10761,-0.56545 c -0.0591,-0.31097 -0.0809,-0.85717 -0.049,-1.21396 0.0388,-0.42065 -0.0145,-0.80824 -0.15518,-1.10325 -0.27456,-0.58271 -0.24973,-1.17561 0.0684,-1.65795 0.3331,-0.50483 0.3899,-0.51841 0.56921,-0.13654 0.22411,0.47574 0.23381,0.98711 0.0292,1.5853 l -0.18,0.53005 0.67025,1.42324 0.66955,1.42329 0.40595,-0.14019 c 0.22296,-0.0768 0.43736,-0.14488 0.47662,-0.15075 0.0388,-0.006 0.0723,-0.22562 0.0737,-0.4882 z m 4.30838,-3.30333 c 0.69299,-0.46725 2.02205,-1.28431 2.95254,-1.81553 l 1.69229,-0.96603 -0.47131,-0.99667 c -1.10795,-2.34433 -2.87448,-3.67253 -4.91488,-3.69484 -0.80072,-0.009 -1.61875,0.43699 -1.95809,1.06689 -0.47777,0.88554 -0.96743,4.10724 -1.05807,6.958 l -0.0194,0.56589 0.17884,-0.27775 c 0.0985,-0.15269 0.29962,-0.37294 0.44764,-0.48947 0.16245,-0.12802 0.27445,-0.37608 0.28415,-0.62727 0.0194,-0.49892 0.3122,-0.87893 0.74529,-0.96395 0.64934,-0.12752 0.55663,0.89805 -0.10957,1.21145 -0.40203,0.18921 -0.41993,0.24841 -0.37247,1.19795 l 0.0339,0.67015 0.65327,-0.49466 c 0.35919,-0.27202 1.21995,-0.87695 1.9134,-1.3442 z m -22.45599,-11.39866 c 0.23658,-0.65835 -0.067,-0.7178 -0.81075,-0.15881 -0.44279,0.33288 -0.51207,0.43438 -0.38402,0.56065 0.34522,0.34011 1.00762,0.11725 1.19477,-0.40184 z m 1.08279,-4.82689 c 0.77577,-4.7401 1.5527,-8.38455 2.84007,-13.3265 0.81319,-3.11984 0.83836,-3.72743 0.17793,-4.23352 -0.50906,-0.39001 -1.1725,-0.32844 -2.13208,0.19804 -0.97032,0.53217 -1.80094,1.32135 -3.44763,3.27576 -1.92275,2.28232 -3.01038,3.14539 -4.38019,3.47654 -0.78848,0.19057 -1.91386,0.2041 -2.94145,0.0354 -2.37224,-0.38952 -3.79828,0.26756 -4.39463,2.02478 -0.63918,1.88234 0.22007,4.11757 2.50247,6.50757 1.04018,1.08913 1.80776,1.64664 3.63883,2.64157 0.91352,0.49655 2.11511,1.16533 2.67035,1.48614 l 1.00958,0.58334 -0.29199,-0.85363 c -0.23266,-0.68172 -0.3607,-0.91037 -0.63526,-1.13473 -0.463,-0.37929 -0.60305,-0.71775 -0.49302,-1.19369 0.11396,-0.49591 0.19351,-0.5351 0.52119,-0.25735 0.32733,0.2779 0.5228,0.68863 0.57083,1.19919 0.034,0.3563 0.11581,0.45498 0.79713,0.95016 0.62118,0.45116 0.79529,0.64507 0.95081,1.0572 l 0.19017,0.50473 0.53735,-0.14795 c 0.29523,-0.0806 0.56286,-0.1573 0.59438,-0.16865 0.034,-0.0112 0.16638,-0.36522 0.29881,-0.78636 l 0.24097,-0.76596 -0.46554,-1.01505 c -0.35596,-0.77566 -0.46842,-1.16081 -0.47569,-1.63316 -0.005,-0.33997 0.0242,-0.67344 0.0697,-0.74094 0.0436,-0.0675 0.29777,0.0531 0.56355,0.26781 0.69438,0.56177 0.91883,1.29926 0.74426,2.44388 -0.0959,0.62751 -0.079,0.98547 0.0597,1.2803 0.11396,0.24211 0.1561,0.56612 0.1038,0.79355 -0.0931,0.40465 -0.0693,0.60278 0.0503,0.41896 0.0389,-0.0601 0.27549,-1.35934 0.52569,-2.88742 z m -6.20677,4.10495 c -1.14294,-0.47462 -1.35434,-0.52151 -1.89158,-0.42544 -0.61205,0.10934 -1.31658,-0.078 -1.85093,-0.4919 l -0.419,-0.32478 0.2517,-0.11542 c 0.48193,-0.22136 1.32859,-0.12655 2.13843,0.23936 0.64403,0.29104 0.95531,0.35049 1.48088,0.28289 0.36613,-0.047 0.93199,-0.0697 1.25794,-0.0507 0.6386,0.0378 0.61239,-0.008 -0.24593,-0.43094 -0.30736,-0.15173 -1.24235,-0.67378 -2.07689,-1.16019 -1.9134,-1.11464 -5.36934,-2.79756 -7.14407,-3.47852 -1.03475,-0.39698 -1.55997,-0.51948 -2.19512,-0.51172 -1.63906,0.0199 -2.77565,0.88738 -2.75914,2.10576 0.0104,0.67091 0.14259,0.97553 0.70315,1.60387 0.61909,0.69375 1.77369,1.12783 4.41795,1.66119 3.05056,0.61534 8.88104,1.54388 9.0891,1.44759 0.0242,-0.0112 -0.3167,-0.16896 -0.75649,-0.35122 z m -3.07723,27.09759 c -0.34534,-0.25696 -0.43067,-0.56599 -0.29535,-1.07372 l 0.12562,-0.47469 -0.54058,-0.49219 c -0.50537,-0.45948 -0.54462,-0.52737 -0.59554,-1.02328 -0.0679,-0.665 0.063,-0.79195 0.59496,-0.57738 0.50479,0.20351 0.93592,0.98785 0.84182,1.53119 -0.0436,0.24749 0.0194,0.46299 0.23519,0.79218 0.36855,0.5675 0.38448,0.77964 0.0867,1.16839 -0.21868,0.28517 -0.25401,0.29696 -0.45237,0.14963 z"
       id="path27216-2-4-5-8-39"
       sodipodi:nodetypes="scsscsssscccsssssssssssssssscsssssssssccssssssscsssssccssssssssssssssssssssssscsssssssssscsssssssssssssscssssssssssssssscsssssssssscssccssssssssscssssssssssscsssccsssssccssssscsscssssscsssssscccssccsscsssscsssssscsssssssssscssssssscssssssscssscsssssssssssscssssssssssscsssscssssssssssss" />
    <path
       style="fill:#000000;fill-opacity:0.00401605;stroke:#ffffff;stroke-width:1.72035;stroke-linecap:butt;stroke-linejoin:bevel;stroke-miterlimit:4;stroke-dasharray:none;stroke-opacity:1;paint-order:stroke fill markers"
       d="M 127.5622,118.47789 V 95.571359 l -3.72449,4.944191 c -5.08716,6.75236 -7.89814,9.29752 -9.02456,8.17099 -0.6266,-0.62669 0.17307,-2.62571 2.68432,-6.70886 4.89768,-7.962971 11.08263,-21.143511 14.34113,-30.561821 2.92991,-8.46816 2.49485,-8.14588 8.14395,-6.03354 l 1.8544,0.69351 -1.96974,4.89935 c -1.08336,2.69465 -2.58353,6.31366 -3.33367,8.042 -1.16915,2.69408 -1.36358,7.37007 -1.36358,32.755001 v 29.61221 h -3.80405 -3.80371 z m 28.89899,17.8019 c -1.76272,-1.64213 -1.85001,-2.40034 -1.85001,-16.06055 0,-7.88528 -0.16095,-14.3369 -0.3577,-14.3369 -0.19639,0 -3.17722,1.52071 -6.62288,3.37945 -5.71907,3.08463 -7.38896,3.44453 -7.38896,1.59194 0,-0.36503 1.79171,-1.89671 3.98197,-3.40351 2.18993,-1.50684 5.42326,-4.04187 7.18483,-5.63327 l 3.20274,-2.893681 v -17.22999 -17.23015 h 3.80416 3.80359 v 32.37456 c 0,24.053241 0.26036,32.635281 1.01443,33.388831 1.21752,1.21769 16.53002,1.38663 18.40116,0.20313 0.85198,-0.53878 1.41934,-3.07067 1.80775,-8.06408 0.31128,-4.00327 0.75349,-7.46628 0.98291,-7.69573 0.2293,-0.22936 1.38194,-0.1747 2.56124,0.12084 2.04191,0.51253 2.12585,0.76624 1.75545,5.32416 -1.01397,12.48985 -1.304,13.87789 -3.31392,15.88822 -1.92356,1.92333 -2.47985,1.99974 -14.55831,1.99974 -11.46989,0 -12.71858,-0.14935 -14.40845,-1.7234 z m -83.177282,-4.56233 -1.38979,-3.75001 2.26405,-0.42377 c 1.24523,-0.23309 4.54646,-0.65792 7.33562,-0.94382 2.78973,-0.2861 6.30814,-0.73253 7.81916,-0.99201 l 2.74702,-0.4721 V 104.94288 84.750119 h -9.29809 -9.29808 v -2.11327 -2.11321 h 9.29808 9.29809 v -8.45278 -8.45297 h -6.76202 c -6.65001,0 -6.76258,-0.0354 -6.76258,-2.11321 v -2.11326 h 18.173809 18.173703 v 2.11326 c 0,2.09751 -0.0567,2.11321 -7.60763,2.11321 h -7.607643 v 8.45297 8.45278 h 8.029983 c 8.00252,0 8.03057,0.0126 8.03057,2.11321 0,2.1058 -0.0291,2.11327 -8.03057,2.11327 h -8.029983 v 19.441591 19.44165 h 1.958083 c 1.83442,0 9.54043,-1.19703 13.95411,-2.16771 1.65246,-0.3633 1.92113,-0.12977 1.69033,1.46891 -0.22457,1.55563 -1.42605,2.26398 -6.61365,3.89889 -5.63697,1.77649 -33.707192,8.63392 -35.342332,8.63392 -0.35249,0 -1.26613,-1.68736 -2.03024,-3.74991 z m 4.0882,-24.35592 c -1.29615,-5.69507 -2.55974,-11.210571 -2.8081,-12.256661 -0.34615,-1.45592 -0.0819,-1.9001 1.1255,-1.89448 2.38044,0.0126 9.38099,11.525911 11.68972,19.227811 0.4974,1.65949 0.0611,2.12549 -3.36092,3.59246 -2.16267,0.92715 -4.01268,1.68569 -4.11105,1.68569 -0.098,0 -1.239,-4.6597 -2.53515,-10.35482 z m 25.289832,8.72214 c -0.39915,-0.6457 5.11567,-23.581301 5.86535,-24.395301 0.5751,-0.62383 7.20087,2.66092 7.20087,3.56959 0,1.37897 -7.23967,16.186511 -9.39114,19.207831 -1.77773,2.49613 -2.8425,2.96499 -3.67508,1.61788 z m 63.78339,-23.498801 c 0,-3.83492 0.36613,-4.57761 4.723,-9.58833 2.59715,-2.9873 5.27004,-6.4775 5.93867,-7.75597 0.66874,-1.27844 1.42177,-2.32452 1.67289,-2.32452 0.93927,0 6.26161,4.45864 6.26161,5.24521 0,1.05744 -9.39611,10.85916 -14.58117,15.2107 l -4.015,3.36961 z M 71.324908,62.731039 c -0.3017,-0.48765 0.0679,-1.72382 0.81999,-2.74707 6.65002,-9.04257 17.77906,-28.57586 20.03676,-35.16761 0.45387,-1.32428 7.935892,1.14107 7.790879,2.56684 -0.0639,0.63542 -0.35724,1.73514 -0.65108,2.44383 -0.38125,0.92098 0.978983,2.2838 4.766523,4.77593 2.91524,1.91813 7.1025,5.07507 9.30536,7.01561 l 4.00437,3.52831 -2.667,3.3184 c -1.4668,1.82533 -2.88811,3.3138 -3.15909,3.30817 -0.27122,-0.0121 -1.30401,-1.26386 -2.29511,-2.79572 -0.99169,-1.53171 -4.65603,-5.97587 -7.07237,-8.89223 -1.71562,-2.07046 -5.269473,-6.10714 -5.269473,-6.10714 l -3.010839,4.88764 c -4.52798,7.35064 -7.42429,10.99886 -14.45162,18.20087 -6.5729,6.73713 -7.21046,7.18029 -8.1473,5.66417 z m 63.844472,-9.67927 v -8.03019 h -8.02999 c -8.00182,0 -8.02999,-0.0121 -8.02999,-2.11325 0,-2.10582 0.0291,-2.11323 8.02999,-2.11323 h 8.02999 v -8.03023 -8.03032 h 3.80417 3.80359 v 18.17378 18.17371 h -3.80359 -3.80417 z m 26.76783,7.4667 c -0.30978,-0.3098 -0.56356,-3.92355 -0.56356,-8.03027 v -7.46662 h -7.18482 c -7.10043,0 -7.18529,-0.0252 -7.18529,-2.11325 0,-2.08757 0.0868,-2.11323 7.1533,-2.11323 h 7.15331 l 0.24304,-7.81895 0.24293,-7.81881 3.59264,-0.25995 3.59265,-0.25987 v 8.07876 8.07882 h 9.29808 9.29809 v 2.11323 2.11325 h -9.29809 -9.29808 v 8.03019 8.03027 h -3.24061 c -1.78212,0 -3.49381,-0.25361 -3.80359,-0.56357 z"
       id="path1779-2-9-3-9-0-4-7"
       sodipodi:nodetypes="ccssssscsssccccssssssscccccssssscsssssscssscccccccccccsscccsscccssscccsssssssscssssssssssssssscsscssssscscsacsssccsssccccccccccsscssscccccccccccccccss" />
  </g>
</svg>
