<?xml version="1.0" encoding="UTF-8" standalone="no"?>
<svg
   xmlns:dc="http://purl.org/dc/elements/1.1/"
   xmlns:cc="http://creativecommons.org/ns#"
   xmlns:rdf="http://www.w3.org/1999/02/22-rdf-syntax-ns#"
   xmlns:svg="http://www.w3.org/2000/svg"
   xmlns="http://www.w3.org/2000/svg"
   xmlns:sodipodi="http://sodipodi.sourceforge.net/DTD/sodipodi-0.dtd"
   xmlns:inkscape="http://www.inkscape.org/namespaces/inkscape"
   width="250"
   height="58"
   viewBox="0 0 250 58"
   fill="none"
   version="1.1"
   id="svg62"
   sodipodi:docname="sansen_logo.svg"
   inkscape:version="1.0.2-2 (e86c870879, 2021-01-15)">
  <metadata
     id="metadata68">
    <rdf:RDF>
      <cc:Work
         rdf:about="">
        <dc:format>image/svg+xml</dc:format>
        <dc:type
           rdf:resource="http://purl.org/dc/dcmitype/StillImage" />
        <dc:title />
      </cc:Work>
    </rdf:RDF>
  </metadata>
  <defs
     id="defs66" />
  <sodipodi:namedview
     pagecolor="#ffffff"
     bordercolor="#666666"
     borderopacity="1"
     objecttolerance="10"
     gridtolerance="10"
     guidetolerance="10"
     inkscape:pageopacity="0"
     inkscape:pageshadow="2"
     inkscape:window-width="1920"
     inkscape:window-height="1017"
     id="namedview64"
     showgrid="false"
     inkscape:zoom="4.1151417"
     inkscape:cx="117.23659"
     inkscape:cy="24"
     inkscape:window-x="-8"
     inkscape:window-y="-8"
     inkscape:window-maximized="1"
     inkscape:current-layer="layer1"
     inkscape:document-rotation="0" />
  <g
     inkscape:groupmode="layer"
     id="layer1"
     inkscape:label="blk" />
  <g
     inkscape:groupmode="layer"
     id="layer2"
     inkscape:label="original"
     sodipodi:insensitive="true">
    <path
       d="m 13.335543,32.77911 2.59646,2.5964 c 0,0 0.0564,0 0.0564,-0.0564 -1.07243,-1.8627 -1.24176,-4.7978 0.8467,-6.8297 L 39.977105,5.3473105 H 32.978103 L 13.335543,24.98981 c -2.14487,2.1449 -2.14487,5.6444 0,7.7893 z"
       fill="#1f2f8e"
       id="path2" />
    <path
       d="m 8.3121027,27.69911 2.5964303,2.5965 c 0,0 0.05644,0 0.05644,-0.0565 -1.0724403,-1.8626 -1.2417703,-4.7977 0.84666,-6.8297 L 29.873703,5.3473105 h -6.9426 L 8.3121027,19.96631 c -2.14487,2.1449 -2.14487,5.6444 0,7.7328 z"
       fill="#1f2f8e"
       id="path4" />
    <path
       d="m 46.919805,30.97291 -9.7084,-9.7084 -1.524002,-1.524 14.336802,-14.3931995 h -6.9426 L 18.359103,30.06981 c -2.1449,2.1449 -2.1449,5.5879 0,7.7328 l 1.1853,1.1853 -14.3932003,14.3368 H 32.300803 l 14.619002,-14.619 c 2.1449,-2.1449 2.1449,-5.5879 0,-7.7328 z m -13.546602,-5.8137 -13.095,13.0385 c -0.1693,-1.5804 0.2258,-3.3302 1.5804,-4.6284 l 13.0386,-13.0386 c 0.2258,1.524 -0.1693,3.2738 -1.524,4.6285 z"
       fill="#1f2f8e"
       id="path6" />
    <path
       d="m 62.385505,14.88636 h 19.8683 c 0.2258,-2.03199 0.4515,-4.00753 0.7902,-5.9266195 h -20.6585 c -4.9107,0 -8.8617,3.9510795 -8.8617,8.8616695 0,4.9107 3.951,8.8618 8.8617,8.8618 h 11.7968 c 1.6369,0 2.9351,1.2982 2.9351,2.935 0,1.6369 -1.2982,2.9351 -2.9351,2.9351 h -19.8683 c -0.2258,2.032 -0.4516,4.0076 -0.7902,5.9267 h 20.6585 c 4.9106,0 8.8617,-3.9511 8.8617,-8.8618 0,-4.9106 -3.9511,-8.8617 -8.8617,-8.8617 h -11.7968 c -1.6369,0 -2.9351,-1.2982 -2.9351,-2.9351 -0.0565,-1.6368 1.2982,-2.93505 2.9351,-2.93505 z"
       fill="#1f2f8e"
       id="path8" />
    <path
       d="m 159.9202,14.88636 h 19.869 c 0.225,-2.03199 0.451,-4.00753 0.79,-5.9266195 h -20.659 c -4.91,0 -8.861,3.9510795 -8.861,8.8616695 0,4.9107 3.951,8.8618 8.861,8.8618 h 11.797 c 1.637,0 2.935,1.2982 2.935,2.935 0,1.6369 -1.298,2.9351 -2.935,2.9351 h -19.812 c -0.225,2.032 -0.451,4.0076 -0.79,5.9267 h 20.659 c 4.91,0 8.861,-3.9511 8.861,-8.8618 0,-4.9106 -3.951,-8.8617 -8.861,-8.8617 h -11.797 c -1.637,0 -2.935,-1.2982 -2.935,-2.9351 -0.057,-1.6368 1.242,-2.93505 2.878,-2.93505 z"
       fill="#1f2f8e"
       id="path10" />
    <path
       d="M 112.9032,8.9597405 H 94.332705 c -4.9106,0 -8.8617,3.9510795 -8.8617,8.8616695 v 11.7968 c 0,4.9107 3.9511,8.8618 8.8617,8.8618 H 106.1862 c -0.339,-1.9191 -0.621,-3.8947 -0.79,-5.9267 H 94.389205 c -1.6369,0 -2.9351,-1.2982 -2.9351,-2.9351 v -11.7968 c 0,-1.6368 1.2982,-2.93505 2.9351,-2.93505 H 109.1212 v 22.80335 c 2.032,0.2258 4.007,0.4516 5.926,0.7903 V 11.04817 c 0,-1.1288795 -0.959,-2.0884295 -2.144,-2.0884295 z"
       fill="#1f2f8e"
       id="path12" />
    <path
       d="m 203.7212,8.9597405 h -11.797 c -4.91,0 -8.861,3.9510795 -8.861,8.8616695 v 11.7968 c 0,4.9107 3.951,8.8618 8.861,8.8618 h 20.659 c -0.339,-1.9191 -0.621,-3.8947 -0.79,-5.9267 h -19.869 c -1.637,0 -2.935,-1.2982 -2.935,-2.9351 v -11.7968 c 0,-1.6368 1.298,-2.93505 2.935,-2.93505 h 11.797 c 1.637,0 2.935,1.29825 2.935,2.93505 v 2.9351 h -14.732 c 0.339,1.9191 0.621,3.8947 0.791,5.9267 h 16.876 c 1.637,0 2.935,-1.2983 2.935,-2.9351 v -5.9267 c 0.057,-4.91059 -3.894,-8.8616695 -8.805,-8.8616695 z"
       fill="#1f2f8e"
       id="path14" />
    <path
       d="m 139.5442,8.9597405 h -18.57 c -1.185,0 -2.088,0.95955 -2.088,2.0884295 v 27.37534 c 1.919,-0.3387 3.894,-0.6209 5.926,-0.7902 V 14.88636 h 14.732 c 1.637,0 2.935,1.29825 2.935,2.93505 v 19.8683 c 2.032,0.2258 4.008,0.4516 5.927,0.7903 v -20.6586 c 0,-4.91059 -3.951,-8.8616695 -8.862,-8.8616695 z"
       fill="#1f2f8e"
       id="path16" />
    <path
       d="m 236.2892,8.9597405 h -18.57 c -1.185,0 -2.089,0.95955 -2.089,2.0884295 v 27.37534 c 1.92,-0.3387 3.895,-0.6209 5.927,-0.7902 V 14.88636 h 14.732 c 1.637,0 2.935,1.29825 2.935,2.93505 v 19.8683 c 2.032,0.2258 4.008,0.4516 5.927,0.7903 v -20.6586 c 0,-4.91059 -3.951,-8.8616695 -8.862,-8.8616695 z"
       fill="#1f2f8e"
       id="path18" />
    <path
       d="m 62.046605,49.93811 c -1.6369,-1.3546 -2.032,-2.4835 -2.032,-2.4835 h 1.9191 c 0.0565,0 0.0565,-0.0565 0.0565,-0.0565 v -0.6773 c 0,-0.0564 -0.0565,-0.0564 -0.0565,-0.0564 h -2.2577 v -1.3547 h 2.0884 v -0.7338 c 0,-0.0564 -0.0565,-0.0564 -0.0565,-0.0564 h -2.0319 v -1.1853 c 0,-0.0565 -0.0565,-0.0565 -0.0565,-0.0565 h -0.6773 c -0.0565,0 -0.0565,0.0565 -0.0565,0.0565 v 1.1853 h -0.8466 c 0.0564,-0.2822 0.1129,-0.5644 0.1129,-0.9031 0,-0.0565 -0.0565,-0.1129 -0.0565,-0.1129 h -0.6209 c -0.0564,0 -0.0564,0.0564 -0.0564,0.0564 -0.0564,0.2823 -0.2258,1.4676 -0.8467,2.7094 0,0.0564 0,0.1128 0.0565,0.1128 h 0.7338 c 0.0564,0 0.0564,0 0.0564,-0.0564 0.0564,-0.1129 0.2258,-0.508 0.3951,-1.016 h 1.0724 v 1.3547 h -2.2577 c -0.0565,0 -0.0565,0.0564 -0.0565,0.0564 v 0.6209 c -0.2257,-0.2822 -0.7337,-0.9596 -0.8466,-1.7498 h 0.9031 c 0.0564,0 0.0564,-0.0564 0.0564,-0.0564 v -0.6773 c 0,-0.0565 -0.0564,-0.0565 -0.0564,-0.0565 h -0.9031 v -1.3546 c 0,-0.0565 -0.0565,-0.0565 -0.0565,-0.0565 h -0.6773 c -0.0564,0 -0.0564,0.0565 -0.0564,0.0565 v 1.3546 h -1.2418 c -0.0564,0 -0.0564,0.0565 -0.0564,0.0565 v 0.6773 c 0,0.0564 0.0564,0.0564 0.0564,0.0564 h 1.1289 c -0.4516,1.9756 -1.2418,2.8787 -1.3547,2.9916 0,0 0,0 0,0.0564 v 1.2982 c 0,0.0565 0.0565,0.1129 0.1129,0.0565 0.508,-0.6209 0.9596,-1.4111 1.2418,-2.0885 v 3.6689 c 0,0.0564 0.0564,0.0564 0.0564,0.0564 h 0.6773 c 0.0565,0 0.0565,-0.0564 0.0565,-0.0564 v -4.1204 c 0.2258,0.4515 0.508,0.9031 0.9031,1.2982 0.0564,0.0564 0.1129,0 0.1129,-0.0565 v -1.1853 h 1.8626 c 0,0 -0.3951,1.1289 -2.0319,2.4836 l -0.0565,0.0564 c 0,0.1693 0,0.6209 0,0.9031 0,0.0565 0.0565,0.1129 0.1129,0.0565 0.3951,-0.2258 1.4675,-1.0725 2.2578,-2.4836 v 3.1044 c 0,0.0565 0.0564,0.0565 0.0564,0.0565 h 0.6773 c 0.0565,0 0.0565,-0.0565 0.0565,-0.0565 v -3.1608 c 0.7902,1.4675 1.9191,2.2577 2.2577,2.4835 0.0565,0.0565 0.1129,0 0.1129,-0.0564 v -0.9031 c 0.1694,0 0.1129,-0.0565 0.1129,-0.0565 z"
       fill="#1f2f8e"
       id="path20" />
    <path
       d="m 67.690705,49.59951 c -0.7337,0.1693 -1.4111,0.2822 -2.0319,0.3386 v -2.4271 h 1.5804 c 0.0564,0 0.0564,-0.0564 0.0564,-0.0564 v -0.6773 c 0,-0.0565 -0.0564,-0.0565 -0.0564,-0.0565 h -3.9511 c -0.0564,0 -0.0564,0.0565 -0.0564,0.0565 v 0.6773 c 0,0.0564 0.0564,0.0564 0.0564,0.0564 h 1.524 v 2.54 c -0.9031,0.1129 -1.4675,0.1694 -1.6933,0.1694 -0.0565,0 -0.0565,0.0564 -0.0565,0.0564 v 0.7902 c 0,0.0565 0.0565,0.1129 0.1129,0.0565 0.4516,0 2.2578,-0.1694 4.572,-0.6774 0.0564,0 0.0564,-0.0564 0.0564,-0.0564 v -0.7338 c 0,0 -0.0564,-0.0564 -0.1129,-0.0564 z"
       fill="#1f2f8e"
       id="path22" />
    <path
       d="m 71.134105,49.93811 c -0.2258,0.3951 -0.6209,0.6773 -0.8466,0.6773 -0.6209,0 -1.016,-1.1289 -1.1854,-1.6369 -0.1693,-0.508 -0.4515,-1.5804 -0.4515,-3.4995 v -0.1129 h 2.032 c 0.0564,0 0.0564,-0.0564 0.0564,-0.0564 v -0.6774 c 0,-0.0564 -0.0564,-0.0564 -0.0564,-0.0564 h -2.032 v -1.1853 c 0,-0.0565 -0.0565,-0.0565 -0.0565,-0.0565 h -0.7902 c -0.0564,0 -0.0564,0.0565 -0.0564,0.0565 v 1.1853 h -4.6849 c -0.0564,0 -0.0564,0.0564 -0.0564,0.0564 v 0.6774 c 0,0.0564 0.0564,0.0564 0.0564,0.0564 h 4.6849 c 0,1.3547 0.2258,3.6124 0.8466,4.9106 0.6209,1.2982 1.4111,1.4111 1.8627,1.3547 0.3951,-0.0565 0.7902,-0.4516 0.8467,-0.508 v -0.0565 -1.0159 c -0.0565,-0.1694 -0.1694,-0.1694 -0.1694,-0.1129 z"
       fill="#1f2f8e"
       id="path24" />
    <path
       d="m 70.287505,44.29381 c 0,0 0.0565,0.0564 0.1129,0.0564 h 0.7902 c 0.0565,0 0.1129,-0.0564 0.1129,-0.0564 -0.2258,-0.3951 -0.5644,-0.8467 -0.6773,-1.016 0,0 -0.0565,-0.0565 -0.1129,-0.0565 h -0.7902 c -0.0565,0 -0.1129,0.0565 -0.1129,0.0565 0.1693,0.2257 0.4515,0.6209 0.6773,1.016 z"
       fill="#1f2f8e"
       id="path26" />
    <path
       d="m 80.390805,45.64841 c -0.3387,-0.1129 -1.9191,-0.7338 -2.7094,-1.4676 -0.6208,-0.5644 -0.7902,-0.7902 -0.8466,-0.8466 l -0.0565,-0.0565 h -0.9031 c 0,0 -0.0564,0 -0.0564,0.0565 -0.0565,0.0564 -0.2258,0.2822 -0.8467,0.8466 -0.7902,0.7338 -2.4271,1.3547 -2.7093,1.4676 -0.0564,0 -0.0564,0.0564 -0.0564,0.0564 v 0.8467 c 0,0.0564 0.0564,0.1129 0.1129,0.0564 0.4515,-0.1693 0.9595,-0.3951 1.6933,-0.7338 v 0.6209 c 0,0.0565 0.0564,0.0565 0.0564,0.0565 h 4.6284 c 0.0565,0 0.0565,-0.0565 0.0565,-0.0565 v -0.6209 c 0.6773,0.3952 1.2417,0.6209 1.6933,0.7338 0.0564,0 0.1129,0 0.1129,-0.0564 v -0.8467 c -0.1129,0 -0.1693,-0.0564 -0.1693,-0.0564 z m -6.3782,0.1129 c 0.2258,-0.1694 0.508,-0.2823 0.7902,-0.508 0.6209,-0.3951 1.0724,-0.9031 1.4111,-1.2982 0.3387,0.3951 0.7902,0.8466 1.4111,1.2982 0.2822,0.1693 0.5644,0.3386 0.7902,0.508 z"
       fill="#1f2f8e"
       id="path28" />
    <path
       d="m 79.487705,49.99451 c -0.2823,-0.5644 -0.5645,-1.0724 -0.6209,-1.1853 l -0.0565,-0.0564 h -0.8466 c -0.0565,0 -0.1129,0.0564 -0.0565,0.1129 0.1129,0.2257 0.3387,0.6208 0.6209,1.0724 0,0.0564 0.0565,0.1129 0.0565,0.1129 -1.4676,0.1129 -2.7658,0.1693 -3.7818,0.2258 l 0.9031,-1.9756 h 4.3462 c 0.0564,0 0.0564,-0.0564 0.0564,-0.0564 v -0.6774 c 0,-0.0564 -0.0564,-0.0564 -0.0564,-0.0564 h -7.5071 c -0.0564,0 -0.0564,0.0564 -0.0564,0.0564 v 0.6774 c 0,0.0564 0.0564,0.0564 0.0564,0.0564 h 2.1449 l -0.9595,2.032 c -0.5645,0 -0.9596,0.0564 -1.1289,0.0564 -0.0565,0 -0.0565,0.0565 -0.0565,0.0565 v 0.7902 c 0,0.0564 0.0565,0.0564 0.1129,0.0564 0.6209,0 4.5156,-0.1693 6.3218,-0.4515 0.1129,0.2258 0.1693,0.3951 0.2257,0.6209 0,0.0564 0.0565,0.0564 0.0565,0.0564 h 0.9031 c 0.0564,0 0.1129,-0.0564 0.0564,-0.1129 -0.2257,-0.3386 -0.4515,-0.7902 -0.7337,-1.4111 z"
       fill="#1f2f8e"
       id="path30" />
    <path
       d="m 89.704105,50.55901 h -1.9191 v -4.1205 h 1.6369 c 0.0564,0 0.1129,-0.0564 0.1129,-0.1129 v -0.7337 c 0,-0.0565 -0.0565,-0.1129 -0.1129,-0.1129 h -1.6369 v -2.0884 c 0,-0.0565 -0.0564,-0.0565 -0.0564,-0.0565 h -0.7338 c -0.0564,0 -0.0564,0.0565 -0.0564,0.0565 v 2.0884 h -1.6369 c -0.0565,0 -0.1129,0.0564 -0.1129,0.1129 v 0.7337 c 0,0.0565 0.0564,0.1129 0.1129,0.1129 h 1.5804 v 4.1205 h -2.2013 c -0.0565,0 -0.1129,0.0564 -0.1129,0.1128 v 0.7338 c 0,0.0565 0.0564,0.1129 0.1129,0.1129 h 2.2013 0.9031 1.9191 c 0.0565,0 0.1129,-0.0564 0.1129,-0.1129 v -0.7338 c -0.0564,-0.0564 -0.0564,-0.1128 -0.1129,-0.1128 z"
       fill="#1f2f8e"
       id="path32" />
    <path
       d="m 85.471005,49.14791 c 0.0565,0.0564 0.1129,0 0.1129,-0.0565 v -0.9031 c 0,0 0,-0.0564 -0.0564,-0.0564 l -1.524,-1.0725 c 0.7338,-0.9031 1.0724,-1.5804 1.1289,-1.7497 0,0 0,0 0,-0.0565 v -0.7338 c 0,-0.0564 -0.0565,-0.0564 -0.0565,-0.0564 h -1.2982 v -1.0724 c 0,-0.0565 -0.0564,-0.0565 -0.0564,-0.0565 h -0.6774 c -0.0564,0 -0.0564,0.0565 -0.0564,0.0565 v 1.0724 h -1.4676 c -0.0564,0 -0.0564,0.0564 -0.0564,0.0564 v 0.6774 c 0,0.0564 0.0564,0.0564 0.0564,0.0564 h 1.4676 0.8466 0.3952 c -0.3951,0.6773 -0.7338,1.0724 -1.1854,1.6369 -0.3951,0.508 -1.4111,1.2418 -1.5804,1.3546 l -0.0564,0.0565 v 0.9595 c 0,0.0565 0.0564,0.1129 0.1128,0.0565 0.3387,-0.1693 0.7903,-0.4516 1.4111,-1.1289 v 3.3302 c 0,0.0564 0.0565,0.0564 0.0565,0.0564 h 0.6773 c 0.0565,0 0.0565,-0.0564 0.0565,-0.0564 v -3.6124 z"
       fill="#1f2f8e"
       id="path34" />
    <path
       d="m 124.1352,43.89861 h -1.129 v -1.6933 c 0,-0.0564 -0.057,-0.1129 -0.113,-0.1129 h -0.96 c -0.056,0 -0.113,0.0565 -0.113,0.1129 v 1.6933 h -5.531 v -1.6933 c 0,-0.0564 -0.057,-0.1129 -0.113,-0.1129 h -0.96 c -0.056,0 -0.112,0.0565 -0.112,0.1129 v 1.6933 h -1.016 c -0.057,0 -0.113,0.0565 -0.113,0.1129 v 0.9596 c 0,0.0564 0.056,0.1129 0.113,0.1129 h 1.072 v 4.2333 c 0,1.4675 0.96,2.6528 2.992,2.6528 h 5.362 c 0.056,0 0.113,-0.0564 0.113,-0.1129 v -0.9595 c 0,-0.0565 -0.057,-0.1129 -0.113,-0.1129 h -5.08 c -1.411,0 -2.145,-0.7902 -2.145,-1.7498 v -4.0075 h 5.531 v 1.8627 c 0,0.3386 -0.282,0.6208 -0.62,0.6208 h -1.186 c -0.056,0 -0.113,0.0565 -0.113,0.1129 v 0.9031 c 0,0.0565 0.057,0.1129 0.113,0.1129 h 1.468 c 0.79,0 1.467,-0.6773 1.467,-1.4675 v -2.0884 h 1.129 c 0.057,0 0.113,-0.0565 0.113,-0.1129 v -0.9596 c 0.057,-0.0564 0,-0.1129 -0.056,-0.1129 z"
       fill="#1f2f8e"
       id="path36" />
    <path
       d="m 92.074505,48.52691 c 0,1.1853 0.3952,3.3302 4.0076,3.3302 h 4.289695 c 0.0565,0 0.1129,-0.0564 0.1129,-0.1129 v -0.9595 c 0,-0.0565 -0.0564,-0.1129 -0.1129,-0.1129 h -4.402595 c -1.6933,0 -2.6529,-1.016 -2.6529,-2.2013 v -0.9031 c 0,-0.0565 -0.0564,-0.1129 -0.1129,-0.1129 h -1.016 c -0.0564,0 -0.1129,0.0564 -0.1129,0.1129 z"
       fill="#1f2f8e"
       id="path38" />
    <path
       d="m 101.2186,43.89851 h -2.878595 c -0.2822,-0.7902 -0.3951,-1.4111 -0.4515,-1.6368 0,-0.0565 -0.0565,-0.0565 -0.1129,-0.0565 h -1.016 c -0.0565,0 -0.1129,0.0565 -0.1129,0.1129 0.1129,0.5644 0.2258,1.0724 0.3951,1.5804 h -5.3622 c -0.0564,0 -0.1129,0.0565 -0.1129,0.1129 v 0.9596 c 0,0.0564 0.0565,0.1129 0.1129,0.1129 h 5.7573 c 0.7902,2.0319 1.8062,3.3866 2.032,3.6688 l 0.0564,0.0565 h 1.128895 c 0.1129,0 0.1693,-0.1129 0.1129,-0.2258 -0.903095,-1.0725 -1.580395,-2.3142 -2.031995,-3.4431 h 2.483495 c 0.0565,0 0.1129,-0.0564 0.1129,-0.1129 v -0.9595 c 0,-0.1129 -0.0564,-0.1694 -0.1129,-0.1694 z"
       fill="#1f2f8e"
       id="path40" />
    <path
       d="m 112.8462,45.19681 h -1.016 c -0.057,0 -0.113,0.0565 -0.113,0.1129 0,0.3951 -0.056,2.032 -0.282,3.3867 -0.226,1.2982 -0.903,1.9191 -1.524,2.0884 -0.734,0.1693 -1.411,-0.3951 -1.411,-1.1289 v -2.8786 c 0,-1.2418 -0.395,-1.524 -0.847,-1.6933 -0.395,-0.2258 -1.185,-0.2258 -1.919,0.3386 -0.282,0.2258 -0.564,0.508 -0.7903,0.7338 0.3383,-1.9756 0.6213,-3.4995 0.7343,-3.9511 0,-0.0564 -0.057,-0.1129 -0.113,-0.1129 h -1.0164 c -0.0564,0 -0.1129,0.0565 -0.1129,0.0565 -0.1129,0.6773 -1.016,5.3057 -1.524,9.7648 0,0.0564 0.0565,0.1129 0.1129,0.1129 h 1.016 c 0.0565,0 0.1129,-0.0565 0.1129,-0.1129 0.1693,-1.3547 0.3387,-2.7093 0.508,-3.9511 0.8465,-1.2418 1.4115,-1.6369 1.8625,-1.7498 0.452,-0.1129 0.734,0.2258 0.734,0.5645 0,0.3386 0,1.016 0,2.7093 0,1.6933 0.677,2.54 2.314,2.54 1.637,0 2.258,-0.9031 2.822,-2.3142 0.508,-1.2983 0.565,-3.8382 0.565,-4.4027 0,-0.0564 -0.057,-0.1129 -0.113,-0.1129 z"
       fill="#1f2f8e"
       id="path42" />
    <path
       d="m 135.4242,45.19681 h -1.016 c -0.057,0 -0.113,0.0565 -0.113,0.1129 0,0.3951 -0.057,2.032 -0.283,3.3867 -0.225,1.2982 -0.903,1.9191 -1.524,2.0884 -0.733,0.1693 -1.411,-0.3951 -1.411,-1.1289 v -2.8786 c 0,-1.2418 -0.395,-1.524 -0.846,-1.6933 -0.395,-0.2258 -1.186,-0.2258 -1.919,0.3386 -0.283,0.2258 -0.565,0.508 -0.791,0.7338 0.339,-1.9756 0.621,-3.4995 0.734,-3.9511 0,-0.0564 -0.056,-0.1129 -0.113,-0.1129 h -1.016 c -0.056,0 -0.113,0.0565 -0.113,0.0565 -0.113,0.6773 -1.016,5.3057 -1.524,9.7648 0,0.0564 0.057,0.1129 0.113,0.1129 h 1.016 c 0.057,0 0.113,-0.0565 0.113,-0.1129 0.169,-1.3547 0.339,-2.7093 0.508,-3.9511 0.847,-1.2418 1.411,-1.6369 1.863,-1.7498 0.451,-0.1129 0.734,0.2258 0.734,0.5645 0,0.3386 0,1.016 0,2.7093 0,1.6933 0.677,2.54 2.314,2.54 1.637,0 2.258,-0.9031 2.822,-2.3142 0.508,-1.2983 0.564,-3.8382 0.564,-4.4027 0,-0.0564 -0.056,-0.1129 -0.112,-0.1129 z"
       fill="#1f2f8e"
       id="path44" />
    <path
       d="m 147.7292,43.27771 c 0.056,0 0.112,-0.0564 0.112,-0.1129 v -0.7902 c 0,-0.0564 -0.056,-0.1129 -0.112,-0.1129 h -2.823 v -0.6208 c 0,-0.0565 -0.056,-0.1129 -0.113,-0.1129 h -0.903 c -0.056,0 -0.113,0.0564 -0.113,0.1129 v 0.6208 h -2.822 c -0.056,0 -0.113,0.0565 -0.113,0.1129 v 0.7902 c 0,0.0565 0.057,0.1129 0.113,0.1129 h 2.822 v 0.508 h -2.539 c -0.057,0 -0.113,0.0565 -0.113,0.1129 v 0.7902 c 0,0.0565 0.056,0.1129 0.113,0.1129 h 2.539 v 0.508 h -2.822 c -0.056,0 -0.113,0.0565 -0.113,0.1129 v 0.7902 c 0,0.0565 0.057,0.1129 0.113,0.1129 h 2.822 1.129 2.823 c 0.056,0 0.112,-0.0564 0.112,-0.1129 v -0.7902 c 0,-0.0564 -0.056,-0.1129 -0.112,-0.1129 h -2.823 v -0.508 h 2.54 c 0.057,0 0.113,-0.0564 0.113,-0.1129 v -0.7902 c 0,-0.0564 -0.056,-0.1129 -0.113,-0.1129 h -2.54 v -0.508 z"
       fill="#1f2f8e"
       id="path46" />
    <path
       d="m 147.4462,46.77721 h -1.016 -4.12 -1.016 c -0.057,0 -0.113,0.0565 -0.113,0.1129 v 0.9031 0.4516 1.016 0.4515 1.016 1.4676 c 0,0.0564 0.056,0.1128 0.113,0.1128 h 0.903 c 0.056,0 0.113,-0.0564 0.113,-0.1128 v -1.524 h 4.12 v 0.3386 c 0,0.1694 -0.113,0.2823 -0.282,0.2823 h -0.734 c -0.056,0 -0.113,0.0564 -0.113,0.1128 v 0.7903 c 0,0.0564 0.057,0.1128 0.113,0.1128 h 1.073 c 0.62,0 1.072,-0.508 1.072,-1.0724 v -0.5644 -1.016 -0.4516 -0.9595 -0.4516 -0.9031 c 0,-0.0564 -0.056,-0.1129 -0.113,-0.1129 z m -1.016,2.8787 h -4.12 v -0.4516 h 4.12 z m -4.177,-1.4111 v -0.4516 h 4.121 v 0.4516 z"
       fill="#1f2f8e"
       id="path48" />
    <path
       d="m 137.2302,43.05191 2.991,1.0724 c 0.113,0.0565 0.226,-0.0564 0.226,-0.1693 v -0.8466 c 0,-0.0565 -0.056,-0.1129 -0.113,-0.1694 l -2.991,-1.0724 c -0.113,-0.0565 -0.226,0.0564 -0.226,0.1693 v 0.8467 c 0,0.0564 0.056,0.1129 0.113,0.1693 z"
       fill="#1f2f8e"
       id="path50" />
    <path
       d="m 137.1732,45.59191 3.048,1.1289 c 0.057,0 0.17,0 0.17,-0.1129 v -1.0724 l -3.105,-1.0725 c -0.113,-0.0564 -0.169,0.0565 -0.169,0.1129 v 0.9031 c 0,0.0565 0.056,0.1129 0.056,0.1129 z"
       fill="#1f2f8e"
       id="path52" />
    <path
       d="m 140.5602,47.51101 h -1.016 c -0.056,0 -0.113,0.0564 -0.113,0.1129 -0.056,0.2822 -0.113,0.6773 -0.169,0.9031 -0.169,0.4515 -0.339,1.016 -0.903,1.6933 -0.339,0.4516 -0.847,0.7338 -1.129,0.8467 -0.057,0 -0.057,0.0564 -0.057,0.1129 v 1.016 c 0,0.1128 0.113,0.1693 0.226,0.1128 1.016,-0.3951 1.919,-1.0724 2.54,-2.1448 0.565,-0.9031 0.734,-2.032 0.847,-2.5965 -0.113,0 -0.169,-0.0564 -0.226,-0.0564 z"
       fill="#1f2f8e"
       id="path54" />
    <path
       d="m 152.9212,44.06791 c 0,-0.0565 -0.056,-0.1129 -0.113,-0.1129 h -3.556 c -0.056,0 -0.113,0.0564 -0.113,0.1129 v 1.0159 c 0,0.0565 0.057,0.1129 0.113,0.1129 h 2.484 c 0,1.6934 -0.339,2.5965 -1.016,3.8382 -0.565,1.016 -1.299,1.5805 -1.524,1.6934 -0.057,0 -0.057,0.0564 -0.057,0.1128 v 1.1289 c 0,0.1129 0.113,0.1694 0.226,0.1129 1.298,-0.6773 3.556,-2.9915 3.556,-6.8862 z"
       fill="#1f2f8e"
       id="path56" />
    <path
       d="m 155.0662,41.86661 h -1.072 c -0.057,0 -0.113,0.0564 -0.113,0.1129 v 8.6359 c 0,0.2258 -0.226,0.4516 -0.452,0.4516 h -1.185 c -0.057,0 -0.113,0.0564 -0.113,0.1128 v 1.016 c 0,0.0565 0.056,0.1129 0.113,0.1129 h 1.467 c 0.791,0 1.468,-0.6209 1.468,-1.4111 v -8.9181 c 0,-0.0565 -0.056,-0.1129 -0.113,-0.1129 z"
       fill="#1f2f8e"
       id="path58" />
    <path
       d="m 159.8642,44.23721 v -1.2417 c 0,-0.1129 -0.17,-0.2258 -0.283,-0.1129 l -2.483,2.4271 c -0.113,-0.6209 -0.17,-1.2982 -0.17,-1.9756 0,-0.0564 -0.056,-0.1129 -0.112,-0.1129 h -1.016 c -0.057,0 -0.113,0.0565 -0.113,0.1129 0,0.3387 0.056,1.524 0.282,2.5965 0.282,1.2982 1.072,4.4026 3.612,6.2088 0.113,0.0564 0.283,0 0.283,-0.1693 v -1.2982 c 0,-0.0565 0,-0.0565 -0.057,-0.1129 -0.226,-0.1129 -1.016,-0.7338 -1.58,-1.9756 -0.283,-0.6209 -0.565,-1.2982 -0.791,-2.032 l 2.371,-2.2577 c 0.057,0 0.057,0 0.057,-0.0565 z"
       fill="#1f2f8e"
       id="path60" />
  </g>
  <g
     inkscape:groupmode="layer"
     id="layer3"
     inkscape:label="Layer 2">
    <path
       d="m 13.335548,32.779109 2.59646,2.5964 c 0,0 0.0564,0 0.0564,-0.0564 -1.07243,-1.862701 -1.24176,-4.7978 0.8467,-6.829701 L 39.97711,5.3473095 h -6.999 L 13.335548,24.989809 c -2.14487,2.1449 -2.14487,5.644401 0,7.7893 z"
       fill="#1f2f8e"
       id="path2-8"
       style="stroke:#ffffff;stroke-opacity:1;stroke-linejoin:miter;stroke-linecap:square;paint-order:stroke markers fill;stroke-width:2.6;stroke-miterlimit:4;stroke-dasharray:none" />
    <path
       d="m 8.312108,27.699109 2.59643,2.596501 c 0,0 0.05644,0 0.05644,-0.0565 -1.07244,-1.8626 -1.24177,-4.797701 0.84666,-6.8297 L 29.87371,5.3473095 h -6.9426 L 8.312108,19.96631 c -2.14487,2.1449 -2.14487,5.6444 0,7.732799 z"
       fill="#1f2f8e"
       id="path4-4"
       style="stroke:#ffffff;stroke-opacity:1;stroke-linejoin:miter;stroke-linecap:square;paint-order:stroke markers fill;stroke-width:2.6;stroke-miterlimit:4;stroke-dasharray:none" />
    <path
       d="m 46.91981,30.972909 -9.7084,-9.7084 -1.524,-1.524 14.3368,-14.3931995 h -6.9426 L 18.359108,30.069809 c -2.1449,2.144901 -2.1449,5.587901 0,7.7328 l 1.1853,1.1853 -14.3932,14.336798 H 32.30081 l 14.619,-14.618998 c 2.1449,-2.1449 2.1449,-5.5879 0,-7.7328 z m -13.5466,-5.8137 -13.095002,13.0385 c -0.1693,-1.5804 0.2258,-3.3302 1.580402,-4.6284 l 13.0386,-13.0386 c 0.2258,1.524 -0.1693,3.2738 -1.524,4.6285 z"
       fill="#1f2f8e"
       id="path6-4"
       style="stroke:#ffffff;stroke-opacity:1;stroke-linejoin:miter;stroke-linecap:square;paint-order:stroke markers fill;stroke-width:2.6;stroke-miterlimit:4;stroke-dasharray:none" />
    <path
       d="m 62.38551,14.88636 h 19.8683 c 0.2258,-2.03199 0.4515,-4.00753 0.7902,-5.9266195 h -20.6585 c -4.9107,0 -8.8617,3.9510795 -8.8617,8.8616685 0,4.9107 3.951,8.8618 8.8617,8.8618 h 11.7968 c 1.6369,0 2.9351,1.2982 2.9351,2.935 0,1.6369 -1.2982,2.935101 -2.9351,2.935101 h -19.8683 c -0.2258,2.031999 -0.4516,4.007599 -0.7902,5.9267 h 20.6585 c 4.9106,0 8.8617,-3.9511 8.8617,-8.861801 0,-4.9106 -3.9511,-8.8617 -8.8617,-8.8617 h -11.7968 c -1.6369,0 -2.9351,-1.298199 -2.9351,-2.9351 -0.0565,-1.6368 1.2982,-2.93505 2.9351,-2.935049 z"
       fill="#1f2f8e"
       id="path8-1"
       style="stroke:#ffffff;stroke-opacity:1;stroke-linejoin:miter;stroke-linecap:square;paint-order:stroke markers fill;stroke-width:2.6;stroke-miterlimit:4;stroke-dasharray:none" />
    <path
       d="m 159.9202,14.88636 h 19.869 c 0.225,-2.03199 0.451,-4.00753 0.79,-5.9266195 h -20.659 c -4.91,0 -8.861,3.9510795 -8.861,8.8616685 0,4.9107 3.951,8.8618 8.861,8.8618 h 11.797 c 1.637,0 2.935,1.2982 2.935,2.935 0,1.6369 -1.298,2.935101 -2.935,2.935101 h -19.812 c -0.225,2.031999 -0.451,4.007599 -0.79,5.9267 h 20.659 c 4.91,0 8.861,-3.9511 8.861,-8.861801 0,-4.9106 -3.951,-8.8617 -8.861,-8.8617 h -11.797 c -1.637,0 -2.935,-1.298199 -2.935,-2.9351 -0.057,-1.6368 1.242,-2.93505 2.878,-2.935049 z"
       fill="#1f2f8e"
       id="path10-5"
       style="stroke:#ffffff;stroke-opacity:1;stroke-linejoin:miter;stroke-linecap:square;paint-order:stroke markers fill;stroke-width:2.6;stroke-miterlimit:4;stroke-dasharray:none" />
    <path
       d="M 112.9032,8.9597405 H 94.33271 c -4.9106,0 -8.8617,3.9510795 -8.8617,8.8616685 v 11.7968 c 0,4.910701 3.9511,8.861801 8.8617,8.861801 h 11.85349 c -0.339,-1.919101 -0.621,-3.894701 -0.79,-5.9267 H 94.38921 c -1.6369,0 -2.9351,-1.2982 -2.9351,-2.935101 v -11.7968 c 0,-1.6368 1.2982,-2.93505 2.9351,-2.93505 h 14.73199 v 22.80335 c 2.032,0.2258 4.007,0.4516 5.926,0.7903 v -27.43184 c 0,-1.1288795 -0.959,-2.0884285 -2.144,-2.0884285 z"
       fill="#1f2f8e"
       id="path12-7"
       style="stroke:#ffffff;stroke-opacity:1;stroke-linejoin:miter;stroke-linecap:square;paint-order:stroke markers fill;stroke-width:2.6;stroke-miterlimit:4;stroke-dasharray:none" />
    <path
       d="m 203.7212,8.9597405 h -11.79699 c -4.91001,0 -8.861,3.9510795 -8.861,8.8616685 v 11.7968 c 0,4.910701 3.95099,8.861801 8.861,8.861801 h 20.659 c -0.33901,-1.919101 -0.62101,-3.894701 -0.79001,-5.9267 h -19.86899 c -1.63701,0 -2.93501,-1.2982 -2.93501,-2.935101 v -11.7968 c 0,-1.6368 1.298,-2.93505 2.93501,-2.93505 h 11.79699 c 1.637,0 2.935,1.29825 2.935,2.93505 v 2.9351 h -14.73199 c 0.33899,1.9191 0.621,3.8947 0.79099,5.9267 h 16.876 c 1.637,0 2.935,-1.2983 2.935,-2.9351 v -5.9267 c 0.057,-4.91059 -3.894,-8.8616685 -8.805,-8.8616685 z"
       fill="#1f2f8e"
       id="path14-3"
       style="stroke:#ffffff;stroke-opacity:1;stroke-linejoin:miter;stroke-linecap:square;paint-order:stroke markers fill;stroke-width:2.6;stroke-miterlimit:4;stroke-dasharray:none" />
    <path
       d="m 139.5442,8.9597405 h -18.57 c -1.185,0 -2.088,0.959549 -2.088,2.0884295 v 27.37534 c 1.919,-0.338701 3.894,-0.620901 5.926,-0.7902 V 14.88636 h 14.732 c 1.637,0 2.935,1.298249 2.935,2.93505 v 19.8683 c 2.032,0.2258 4.008,0.4516 5.927,0.7903 v -20.6586 c 0,-4.91059 -3.951,-8.8616695 -8.862,-8.8616695 z"
       fill="#1f2f8e"
       id="path16-7"
       style="stroke:#ffffff;stroke-opacity:1;stroke-linejoin:miter;stroke-linecap:square;paint-order:stroke markers fill;stroke-width:2.6;stroke-miterlimit:4;stroke-dasharray:none" />
    <path
       d="m 236.2892,8.9597405 h -18.57 c -1.185,0 -2.089,0.959549 -2.089,2.0884295 v 27.37534 c 1.92,-0.338701 3.89501,-0.620901 5.927,-0.7902 V 14.88636 h 14.732 c 1.637,0 2.935,1.298249 2.935,2.93505 v 19.8683 c 2.03201,0.2258 4.00801,0.4516 5.927,0.7903 v -20.6586 c 0,-4.91059 -3.951,-8.8616695 -8.862,-8.8616695 z"
       fill="#1f2f8e"
       id="path18-8"
       style="stroke:#ffffff;stroke-opacity:1;stroke-linejoin:miter;stroke-linecap:square;paint-order:stroke markers fill;stroke-width:2.6;stroke-miterlimit:4;stroke-dasharray:none" />
    <path
       d="m 62.04661,49.938107 c -1.6369,-1.3546 -2.032,-2.4835 -2.032,-2.4835 h 1.9191 c 0.0565,0 0.0565,-0.0565 0.0565,-0.0565 v -0.6773 c 0,-0.0564 -0.0565,-0.0564 -0.0565,-0.0564 h -2.2577 v -1.3547 h 2.0884 v -0.7338 c 0,-0.0564 -0.0565,-0.0564 -0.0565,-0.0564 h -2.0319 v -1.185298 c 0,-0.0565 -0.0565,-0.0565 -0.0565,-0.0565 h -0.6773 c -0.0565,0 -0.0565,0.0565 -0.0565,0.0565 v 1.185298 h -0.8466 c 0.0564,-0.2822 0.1129,-0.564398 0.1129,-0.903098 0,-0.0565 -0.0565,-0.1129 -0.0565,-0.1129 h -0.6209 c -0.0564,0 -0.0564,0.0564 -0.0564,0.0564 -0.0564,0.282301 -0.2258,1.467598 -0.8467,2.709399 0,0.0564 0,0.112799 0.0565,0.112799 h 0.7338 c 0.0564,0 0.0564,0 0.0564,-0.0564 0.0564,-0.112899 0.2258,-0.507999 0.3951,-1.016 h 1.0724 v 1.3547 h -2.2577 c -0.0565,0 -0.0565,0.0564 -0.0565,0.0564 v 0.6209 c -0.2257,-0.2822 -0.7337,-0.9596 -0.8466,-1.7498 h 0.9031 c 0.0564,0 0.0564,-0.0564 0.0564,-0.0564 v -0.677301 c 0,-0.0565 -0.0564,-0.0565 -0.0564,-0.0565 h -0.9031 V 43.44711 c 0,-0.0565 -0.0565,-0.0565 -0.0565,-0.0565 h -0.6773 c -0.0564,0 -0.0564,0.0565 -0.0564,0.0565 v 1.354597 h -1.2418 c -0.0564,0 -0.0564,0.0565 -0.0564,0.0565 v 0.677301 c 0,0.0564 0.0564,0.0564 0.0564,0.0564 h 1.1289 c -0.4516,1.9756 -1.2418,2.8787 -1.3547,2.991601 0,0 0,0 0,0.0564 v 1.2982 c 0,0.0565 0.0565,0.1129 0.1129,0.0565 0.508,-0.6209 0.9596,-1.4111 1.2418,-2.0885 v 3.6689 c 0,0.0564 0.0564,0.0564 0.0564,0.0564 h 0.6773 c 0.0565,0 0.0565,-0.0564 0.0565,-0.0564 v -4.1204 c 0.2258,0.4515 0.508,0.9031 0.9031,1.2982 0.0564,0.0564 0.1129,0 0.1129,-0.0565 v -1.1853 h 1.8626 c 0,0 -0.3951,1.1289 -2.0319,2.4836 l -0.0565,0.0564 c 0,0.1693 0,0.6209 0,0.9031 0,0.0565 0.0565,0.1129 0.1129,0.0565 0.3951,-0.2258 1.4675,-1.0725 2.2578,-2.4836 v 3.1044 c 0,0.0565 0.0564,0.0565 0.0564,0.0565 h 0.6773 c 0.0565,0 0.0565,-0.0565 0.0565,-0.0565 v -3.1608 c 0.7902,1.4675 1.9191,2.2577 2.2577,2.4835 0.0565,0.0565 0.1129,0 0.1129,-0.0564 v -0.9031 c 0.1694,0 0.1129,-0.0565 0.1129,-0.0565 z"
       fill="#1f2f8e"
       id="path20-9"
       style="stroke:#ffffff;stroke-opacity:1;stroke-linejoin:miter;stroke-linecap:square;paint-order:stroke markers fill;stroke-width:2.6;stroke-miterlimit:4;stroke-dasharray:none" />
    <path
       d="m 67.69071,49.599507 c -0.7337,0.1693 -1.4111,0.2822 -2.0319,0.3386 v -2.4271 h 1.5804 c 0.0564,0 0.0564,-0.0564 0.0564,-0.0564 v -0.677301 c 0,-0.0565 -0.0564,-0.0565 -0.0564,-0.0565 h -3.9511 c -0.0564,0 -0.0564,0.0565 -0.0564,0.0565 v 0.677301 c 0,0.0564 0.0564,0.0564 0.0564,0.0564 h 1.524 v 2.540001 c -0.9031,0.112899 -1.4675,0.169399 -1.6933,0.169399 -0.0565,0 -0.0565,0.0564 -0.0565,0.0564 v 0.7902 c 0,0.0565 0.0565,0.1129 0.1129,0.0565 0.4516,0 2.2578,-0.1694 4.572,-0.6774 0.0564,0 0.0564,-0.0564 0.0564,-0.0564 v -0.7338 c 0,0 -0.0564,-0.0564 -0.1129,-0.0564 z"
       fill="#1f2f8e"
       id="path22-5"
       style="stroke:#ffffff;stroke-opacity:1;stroke-linejoin:miter;stroke-linecap:square;paint-order:stroke markers fill;stroke-width:2.6;stroke-miterlimit:4;stroke-dasharray:none" />
    <path
       d="m 71.13411,49.938107 c -0.2258,0.3951 -0.6209,0.6773 -0.8466,0.6773 -0.6209,0 -1.016,-1.1289 -1.1854,-1.6369 -0.1693,-0.507999 -0.4515,-1.580399 -0.4515,-3.499499 v -0.1129 h 2.032 c 0.0564,0 0.0564,-0.0564 0.0564,-0.0564 v -0.6774 c 0,-0.0564 -0.0564,-0.0564 -0.0564,-0.0564 h -2.032 V 43.39061 c 0,-0.0565 -0.0565,-0.0565 -0.0565,-0.0565 h -0.7902 c -0.0564,0 -0.0564,0.0565 -0.0564,0.0565 v 1.185298 h -4.6849 c -0.0564,0 -0.0564,0.0564 -0.0564,0.0564 v 0.6774 c 0,0.0564 0.0564,0.0564 0.0564,0.0564 h 4.6849 c 0,1.354699 0.2258,3.612399 0.8466,4.9106 0.6209,1.2982 1.4111,1.4111 1.8627,1.3547 0.3951,-0.0565 0.7902,-0.4516 0.8467,-0.508 v -0.0565 -1.0159 c -0.0565,-0.1694 -0.1694,-0.1694 -0.1694,-0.112901 z"
       fill="#1f2f8e"
       id="path24-1"
       style="stroke:#ffffff;stroke-opacity:1;stroke-linejoin:miter;stroke-linecap:square;paint-order:stroke markers fill;stroke-width:2.6;stroke-miterlimit:4;stroke-dasharray:none" />
    <path
       d="m 70.28751,44.293807 c 0,0 0.0565,0.0564 0.1129,0.0564 h 0.7902 c 0.0565,0 0.1129,-0.0564 0.1129,-0.0564 -0.2258,-0.395098 -0.5644,-0.846698 -0.6773,-1.015998 0,0 -0.0565,-0.0565 -0.1129,-0.0565 h -0.7902 c -0.0565,0 -0.1129,0.0565 -0.1129,0.0565 0.1693,0.2257 0.4515,0.620901 0.6773,1.015998 z"
       fill="#1f2f8e"
       id="path26-0"
       style="stroke:#ffffff;stroke-opacity:1;stroke-linejoin:miter;stroke-linecap:square;paint-order:stroke markers fill;stroke-width:2.6;stroke-miterlimit:4;stroke-dasharray:none" />
    <path
       d="m 80.39081,45.648407 c -0.3387,-0.112899 -1.9191,-0.7338 -2.7094,-1.4676 -0.6208,-0.564398 -0.7902,-0.790198 -0.8466,-0.846598 l -0.0565,-0.0565 h -0.9031 c 0,0 -0.0564,0 -0.0564,0.0565 -0.0565,0.0564 -0.2258,0.2822 -0.8467,0.846598 -0.7902,0.7338 -2.4271,1.3547 -2.7093,1.4676 -0.0564,0 -0.0564,0.0564 -0.0564,0.0564 v 0.8467 c 0,0.0564 0.0564,0.1129 0.1129,0.0564 0.4515,-0.1693 0.9595,-0.3951 1.6933,-0.7338 v 0.6209 c 0,0.0565 0.0564,0.0565 0.0564,0.0565 h 4.6284 c 0.0565,0 0.0565,-0.0565 0.0565,-0.0565 v -0.6209 c 0.6773,0.3952 1.2417,0.6209 1.6933,0.7338 0.0564,0 0.1129,0 0.1129,-0.0564 v -0.8467 c -0.1129,0 -0.1693,-0.0564 -0.1693,-0.0564 z m -6.3782,0.1129 c 0.2258,-0.1694 0.508,-0.2823 0.7902,-0.508 0.6209,-0.3951 1.0724,-0.903099 1.4111,-1.298198 0.3387,0.395099 0.7902,0.846598 1.4111,1.298198 0.2822,0.169301 0.5644,0.3386 0.7902,0.508 z"
       fill="#1f2f8e"
       id="path28-6"
       style="stroke:#ffffff;stroke-opacity:1;stroke-linejoin:miter;stroke-linecap:square;paint-order:stroke markers fill;stroke-width:2.6;stroke-miterlimit:4;stroke-dasharray:none" />
    <path
       d="m 79.48771,49.994508 c -0.2823,-0.564401 -0.5645,-1.0724 -0.6209,-1.1853 l -0.0565,-0.0564 h -0.8466 c -0.0565,0 -0.1129,0.0564 -0.0565,0.1129 0.1129,0.2257 0.3387,0.6208 0.6209,1.0724 0,0.0564 0.0565,0.1129 0.0565,0.1129 -1.4676,0.112899 -2.7658,0.1693 -3.7818,0.2258 l 0.9031,-1.9756 h 4.3462 c 0.0564,0 0.0564,-0.0564 0.0564,-0.0564 v -0.6774 c 0,-0.0564 -0.0564,-0.0564 -0.0564,-0.0564 h -7.5071 c -0.0564,0 -0.0564,0.0564 -0.0564,0.0564 v 0.6774 c 0,0.0564 0.0564,0.0564 0.0564,0.0564 h 2.1449 l -0.9595,2.032 c -0.5645,0 -0.9596,0.0564 -1.1289,0.0564 -0.0565,0 -0.0565,0.0565 -0.0565,0.0565 v 0.7902 c 0,0.0564 0.0565,0.0564 0.1129,0.0564 0.6209,0 4.5156,-0.1693 6.3218,-0.451499 0.1129,0.2258 0.1693,0.3951 0.2257,0.6209 0,0.0564 0.0565,0.0564 0.0565,0.0564 h 0.9031 c 0.0564,0 0.1129,-0.0564 0.0564,-0.1129 -0.2257,-0.3386 -0.4515,-0.7902 -0.7337,-1.411101 z"
       fill="#1f2f8e"
       id="path30-3"
       style="stroke:#ffffff;stroke-opacity:1;stroke-linejoin:miter;stroke-linecap:square;paint-order:stroke markers fill;stroke-width:2.6;stroke-miterlimit:4;stroke-dasharray:none" />
    <path
       d="m 89.70411,50.559007 h -1.9191 v -4.1205 h 1.6369 c 0.0564,0 0.1129,-0.0564 0.1129,-0.1129 v -0.7337 c 0,-0.0565 -0.0565,-0.112899 -0.1129,-0.112899 h -1.6369 V 43.39061 c 0,-0.0565 -0.0564,-0.0565 -0.0564,-0.0565 h -0.7338 c -0.0564,0 -0.0564,0.0565 -0.0564,0.0565 v 2.088398 h -1.6369 c -0.0565,0 -0.1129,0.0564 -0.1129,0.112899 v 0.7337 c 0,0.0565 0.0564,0.1129 0.1129,0.1129 h 1.5804 v 4.1205 h -2.2013 c -0.0565,0 -0.1129,0.0564 -0.1129,0.1128 v 0.7338 c 0,0.0565 0.0564,0.1129 0.1129,0.1129 h 2.2013 0.9031 1.9191 c 0.0565,0 0.1129,-0.0564 0.1129,-0.1129 v -0.7338 c -0.0564,-0.0564 -0.0564,-0.1128 -0.1129,-0.1128 z"
       fill="#1f2f8e"
       id="path32-8"
       style="stroke:#ffffff;stroke-opacity:1;stroke-linejoin:miter;stroke-linecap:square;paint-order:stroke markers fill;stroke-width:2.6;stroke-miterlimit:4;stroke-dasharray:none" />
    <path
       d="m 85.47101,49.147907 c 0.0565,0.0564 0.1129,0 0.1129,-0.0565 v -0.9031 c 0,0 0,-0.0564 -0.0564,-0.0564 l -1.524,-1.072501 c 0.7338,-0.903099 1.0724,-1.580399 1.1289,-1.7497 0,0 0,0 0,-0.0565 v -0.7338 c 0,-0.0564 -0.0565,-0.0564 -0.0565,-0.0564 h -1.2982 v -1.072398 c 0,-0.0565 -0.0564,-0.0565 -0.0564,-0.0565 h -0.6774 c -0.0564,0 -0.0564,0.0565 -0.0564,0.0565 v 1.072398 h -1.4676 c -0.0564,0 -0.0564,0.0564 -0.0564,0.0564 v 0.6774 c 0,0.0564 0.0564,0.0564 0.0564,0.0564 h 1.4676 0.8466 0.3952 c -0.3951,0.6773 -0.7338,1.0724 -1.1854,1.6369 -0.3951,0.508 -1.4111,1.2418 -1.5804,1.3546 l -0.0564,0.0565 v 0.959501 c 0,0.0565 0.0564,0.112899 0.1128,0.0565 0.3387,-0.169301 0.7903,-0.4516 1.4111,-1.128901 v 3.330201 c 0,0.0564 0.0565,0.0564 0.0565,0.0564 h 0.6773 c 0.0565,0 0.0565,-0.0564 0.0565,-0.0564 v -3.6124 z"
       fill="#1f2f8e"
       id="path34-3"
       style="stroke:#ffffff;stroke-opacity:1;stroke-linejoin:miter;stroke-linecap:square;paint-order:stroke markers fill;stroke-width:2.6;stroke-miterlimit:4;stroke-dasharray:none" />
    <path
       d="m 124.1352,43.898609 h -1.129 V 42.20531 c 0,-0.0564 -0.057,-0.1129 -0.113,-0.1129 h -0.96 c -0.056,0 -0.113,0.0565 -0.113,0.1129 v 1.693299 h -5.531 V 42.20531 c 0,-0.0564 -0.057,-0.1129 -0.113,-0.1129 h -0.96 c -0.056,0 -0.112,0.0565 -0.112,0.1129 v 1.693299 h -1.016 c -0.057,0 -0.113,0.0565 -0.113,0.1129 v 0.959598 c 0,0.0564 0.056,0.1129 0.113,0.1129 h 1.072 v 4.2333 c 0,1.4675 0.96,2.6528 2.992,2.6528 h 5.362 c 0.056,0 0.113,-0.0564 0.113,-0.1129 v -0.9595 c 0,-0.0565 -0.057,-0.1129 -0.113,-0.1129 h -5.08 c -1.411,0 -2.145,-0.7902 -2.145,-1.7498 v -4.0075 h 5.531 v 1.8627 c 0,0.3386 -0.282,0.6208 -0.62,0.6208 h -1.186 c -0.056,0 -0.113,0.0565 -0.113,0.1129 v 0.9031 c 0,0.0565 0.057,0.1129 0.113,0.1129 h 1.46801 c 0.79,0 1.46699,-0.6773 1.46699,-1.4675 v -2.0884 h 1.12901 c 0.057,0 0.113,-0.0565 0.113,-0.1129 v -0.959598 c 0.057,-0.0564 0,-0.1129 -0.056,-0.1129 z"
       fill="#1f2f8e"
       id="path36-2"
       style="stroke:#ffffff;stroke-opacity:1;stroke-linejoin:miter;stroke-linecap:square;paint-order:stroke markers fill;stroke-width:2.6;stroke-miterlimit:4;stroke-dasharray:none" />
    <path
       d="m 92.07451,48.526907 c 0,1.1853 0.3952,3.330201 4.0076,3.330201 h 4.28969 c 0.0565,0 0.1129,-0.0564 0.1129,-0.1129 v -0.9595 c 0,-0.0565 -0.0564,-0.1129 -0.1129,-0.1129 h -4.40259 c -1.6933,0 -2.6529,-1.016 -2.6529,-2.2013 v -0.9031 c 0,-0.0565 -0.0564,-0.1129 -0.1129,-0.1129 h -1.016 c -0.0564,0 -0.1129,0.0564 -0.1129,0.1129 z"
       fill="#1f2f8e"
       id="path38-3"
       style="stroke:#ffffff;stroke-opacity:1;stroke-linejoin:miter;stroke-linecap:square;paint-order:stroke markers fill;stroke-width:2.6;stroke-miterlimit:4;stroke-dasharray:none" />
    <path
       d="m 101.2186,43.898509 h -2.87859 c -0.2822,-0.7902 -0.3951,-1.4111 -0.4515,-1.636799 0,-0.0565 -0.0565,-0.0565 -0.1129,-0.0565 h -1.016 c -0.0565,0 -0.1129,0.0565 -0.1129,0.112899 0.1129,0.564401 0.2258,1.0724 0.3951,1.5804 h -5.3622 c -0.0564,0 -0.1129,0.0565 -0.1129,0.1129 v 0.959598 c 0,0.0564 0.0565,0.1129 0.1129,0.1129 h 5.7573 c 0.7902,2.0319 1.8062,3.3866 2.032,3.6688 l 0.0564,0.0565 h 1.12889 c 0.1129,0 0.1693,-0.1129 0.1129,-0.2258 -0.90309,-1.0725 -1.58039,-2.3142 -2.03199,-3.4431 h 2.48349 c 0.0565,0 0.1129,-0.0564 0.1129,-0.1129 v -0.959498 c 0,-0.1129 -0.0564,-0.1694 -0.1129,-0.1694 z"
       fill="#1f2f8e"
       id="path40-9"
       style="stroke:#ffffff;stroke-opacity:1;stroke-linejoin:miter;stroke-linecap:square;paint-order:stroke markers fill;stroke-width:2.6;stroke-miterlimit:4;stroke-dasharray:none" />
    <path
       d="m 112.8462,45.196807 h -1.016 c -0.057,0 -0.113,0.0565 -0.113,0.1129 0,0.3951 -0.056,2.032 -0.282,3.3867 -0.226,1.2982 -0.903,1.9191 -1.524,2.088401 -0.734,0.1693 -1.411,-0.3951 -1.411,-1.1289 v -2.878601 c 0,-1.241799 -0.395,-1.524 -0.847,-1.693299 -0.395,-0.225801 -1.185,-0.225801 -1.919,0.3386 -0.282,0.2258 -0.56399,0.507999 -0.7903,0.7338 0.3383,-1.9756 0.6213,-3.499498 0.7343,-3.951098 0,-0.0564 -0.057,-0.1129 -0.113,-0.1129 h -1.0164 c -0.0564,0 -0.1129,0.0565 -0.1129,0.0565 -0.1129,0.6773 -1.016,5.305698 -1.524,9.764798 0,0.0564 0.0565,0.1129 0.1129,0.1129 h 1.016 c 0.0565,0 0.1129,-0.0565 0.1129,-0.1129 0.1693,-1.3547 0.3387,-2.7093 0.508,-3.9511 0.8465,-1.2418 1.4115,-1.6369 1.8625,-1.7498 0.452,-0.1129 0.734,0.2258 0.734,0.5645 0,0.3386 0,1.016 0,2.7093 0,1.6933 0.677,2.54 2.314,2.54 1.637,0 2.258,-0.9031 2.822,-2.3142 0.508,-1.2983 0.565,-3.8382 0.565,-4.4027 0,-0.0564 -0.057,-0.1129 -0.113,-0.112901 z"
       fill="#1f2f8e"
       id="path42-9"
       style="stroke:#ffffff;stroke-opacity:1;stroke-linejoin:miter;stroke-linecap:square;paint-order:stroke markers fill;stroke-width:2.6;stroke-miterlimit:4;stroke-dasharray:none" />
    <path
       d="m 135.4242,45.196807 h -1.01599 c -0.057,0 -0.113,0.0565 -0.113,0.1129 0,0.3951 -0.057,2.032 -0.283,3.3867 -0.225,1.2982 -0.903,1.9191 -1.524,2.088401 -0.733,0.1693 -1.411,-0.3951 -1.411,-1.1289 v -2.878601 c 0,-1.241799 -0.395,-1.524 -0.846,-1.693299 -0.39501,-0.225801 -1.186,-0.225801 -1.91901,0.3386 -0.28299,0.2258 -0.56499,0.507999 -0.79099,0.7338 0.339,-1.9756 0.621,-3.499498 0.734,-3.951098 0,-0.0564 -0.056,-0.1129 -0.113,-0.1129 h -1.016 c -0.056,0 -0.113,0.0565 -0.113,0.0565 -0.113,0.6773 -1.016,5.305698 -1.524,9.764798 0,0.0564 0.057,0.1129 0.113,0.1129 h 1.016 c 0.057,0 0.113,-0.0565 0.113,-0.1129 0.169,-1.3547 0.339,-2.7093 0.508,-3.9511 0.84699,-1.2418 1.41099,-1.6369 1.863,-1.7498 0.451,-0.1129 0.734,0.2258 0.734,0.5645 0,0.3386 0,1.016 0,2.7093 0,1.6933 0.677,2.54 2.314,2.54 1.637,0 2.258,-0.9031 2.822,-2.3142 0.508,-1.2983 0.564,-3.8382 0.564,-4.4027 0,-0.0564 -0.056,-0.1129 -0.11201,-0.112901 z"
       fill="#1f2f8e"
       id="path44-3"
       style="stroke:#ffffff;stroke-opacity:1;stroke-linejoin:miter;stroke-linecap:square;paint-order:stroke markers fill;stroke-width:2.6;stroke-miterlimit:4;stroke-dasharray:none" />
    <path
       d="m 147.7292,43.277709 c 0.056,0 0.112,-0.0564 0.112,-0.1129 v -0.7902 c 0,-0.0564 -0.056,-0.112899 -0.112,-0.112899 h -2.823 v -0.620801 c 0,-0.0565 -0.056,-0.112899 -0.113,-0.112899 h -0.903 c -0.056,0 -0.113,0.0564 -0.113,0.112899 v 0.620801 h -2.822 c -0.056,0 -0.113,0.0565 -0.113,0.112899 v 0.7902 c 0,0.0565 0.057,0.1129 0.113,0.1129 h 2.822 v 0.508 h -2.539 c -0.057,0 -0.113,0.0565 -0.113,0.1129 v 0.790198 c 0,0.0565 0.056,0.1129 0.113,0.1129 h 2.539 v 0.508 h -2.822 c -0.056,0 -0.113,0.0565 -0.113,0.1129 v 0.7902 c 0,0.0565 0.057,0.1129 0.113,0.1129 h 2.822 1.129 2.823 c 0.056,0 0.112,-0.0564 0.112,-0.1129 v -0.7902 c 0,-0.0564 -0.056,-0.1129 -0.112,-0.1129 h -2.823 v -0.508 h 2.54 c 0.057,0 0.113,-0.0564 0.113,-0.1129 v -0.790198 c 0,-0.0564 -0.056,-0.1129 -0.113,-0.1129 h -2.54 v -0.508 z"
       fill="#1f2f8e"
       id="path46-4"
       style="stroke:#ffffff;stroke-opacity:1;stroke-linejoin:miter;stroke-linecap:square;paint-order:stroke markers fill;stroke-width:2.6;stroke-miterlimit:4;stroke-dasharray:none" />
    <path
       d="m 147.4462,46.777207 h -1.016 -4.12 -1.016 c -0.057,0 -0.113,0.0565 -0.113,0.1129 v 0.9031 0.4516 1.016 0.4515 1.016 1.4676 c 0,0.0564 0.056,0.1128 0.113,0.1128 h 0.903 c 0.056,0 0.113,-0.0564 0.113,-0.1128 v -1.524 h 4.12 v 0.3386 c 0,0.1694 -0.113,0.282301 -0.282,0.282301 h -0.734 c -0.056,0 -0.113,0.0564 -0.113,0.112799 v 0.7903 c 0,0.0564 0.057,0.1128 0.113,0.1128 h 1.073 c 0.62,0 1.072,-0.508 1.072,-1.0724 v -0.5644 -1.016 -0.4516 -0.9595 -0.4516 -0.9031 c 0,-0.0564 -0.056,-0.1129 -0.113,-0.1129 z m -1.016,2.8787 h -4.12 v -0.4516 h 4.12 z m -4.17699,-1.4111 v -0.4516 h 4.121 v 0.4516 z"
       fill="#1f2f8e"
       id="path48-0"
       style="stroke:#ffffff;stroke-opacity:1;stroke-linejoin:miter;stroke-linecap:square;paint-order:stroke markers fill;stroke-width:2.6;stroke-miterlimit:4;stroke-dasharray:none" />
    <path
       d="m 137.2302,43.051909 2.991,1.072401 c 0.113,0.0565 0.226,-0.0564 0.226,-0.169301 v -0.8466 c 0,-0.0565 -0.056,-0.112899 -0.113,-0.169399 l -2.991,-1.0724 c -0.113,-0.0565 -0.226,0.0564 -0.226,0.1693 v 0.8467 c 0,0.0564 0.056,0.1129 0.113,0.169299 z"
       fill="#1f2f8e"
       id="path50-9"
       style="stroke:#ffffff;stroke-opacity:1;stroke-linejoin:miter;stroke-linecap:square;paint-order:stroke markers fill;stroke-width:2.6;stroke-miterlimit:4;stroke-dasharray:none" />
    <path
       d="m 137.1732,45.591907 3.048,1.1289 c 0.057,0 0.17,0 0.17,-0.112899 v -1.0724 l -3.105,-1.072501 c -0.113,-0.0564 -0.169,0.0565 -0.169,0.1129 v 0.9031 c 0,0.0565 0.056,0.1129 0.056,0.1129 z"
       fill="#1f2f8e"
       id="path52-3"
       style="stroke:#ffffff;stroke-opacity:1;stroke-linejoin:miter;stroke-linecap:square;paint-order:stroke markers fill;stroke-width:2.6;stroke-miterlimit:4;stroke-dasharray:none" />
    <path
       d="m 140.5602,47.511007 h -1.016 c -0.056,0 -0.113,0.0564 -0.113,0.1129 -0.056,0.2822 -0.113,0.6773 -0.169,0.9031 -0.169,0.4515 -0.339,1.016 -0.903,1.6933 -0.339,0.4516 -0.847,0.7338 -1.12899,0.8467 -0.057,0 -0.057,0.0564 -0.057,0.1129 v 1.016 c 0,0.1128 0.113,0.1693 0.226,0.1128 1.016,-0.3951 1.919,-1.0724 2.54,-2.1448 0.565,-0.9031 0.734,-2.032 0.847,-2.5965 -0.113,0 -0.169,-0.0564 -0.22601,-0.0564 z"
       fill="#1f2f8e"
       id="path54-4"
       style="stroke:#ffffff;stroke-opacity:1;stroke-linejoin:miter;stroke-linecap:square;paint-order:stroke markers fill;stroke-width:2.6;stroke-miterlimit:4;stroke-dasharray:none" />
    <path
       d="m 152.9212,44.06791 c 0,-0.0565 -0.056,-0.1129 -0.113,-0.1129 h -3.556 c -0.056,0 -0.113,0.0564 -0.113,0.1129 v 1.015898 c 0,0.0565 0.057,0.1129 0.113,0.1129 h 2.484 c 0,1.6934 -0.339,2.5965 -1.016,3.8382 -0.565,1.016 -1.299,1.5805 -1.524,1.6934 -0.057,0 -0.057,0.0564 -0.057,0.112799 v 1.1289 c 0,0.1129 0.113,0.1694 0.226,0.1129 1.298,-0.6773 3.55601,-2.9915 3.55601,-6.8862 z"
       fill="#1f2f8e"
       id="path56-8"
       style="stroke:#ffffff;stroke-opacity:1;stroke-linejoin:miter;stroke-linecap:square;paint-order:stroke markers fill;stroke-width:2.6;stroke-miterlimit:4;stroke-dasharray:none" />
    <path
       d="m 155.0662,41.86661 h -1.072 c -0.057,0 -0.113,0.0564 -0.113,0.112899 v 8.635898 c 0,0.225801 -0.226,0.4516 -0.452,0.4516 h -1.185 c -0.057,0 -0.113,0.0564 -0.113,0.1128 v 1.016 c 0,0.0565 0.056,0.1129 0.113,0.1129 h 1.467 c 0.791,0 1.468,-0.6209 1.468,-1.4111 v -8.918098 c 0,-0.0565 -0.056,-0.1129 -0.113,-0.112899 z"
       fill="#1f2f8e"
       id="path58-8"
       style="stroke:#ffffff;stroke-opacity:1;stroke-linejoin:miter;stroke-linecap:square;paint-order:stroke markers fill;stroke-width:2.6;stroke-miterlimit:4;stroke-dasharray:none" />
    <path
       d="M 159.8642,44.237208 V 42.99551 c 0,-0.1129 -0.16999,-0.225801 -0.28299,-0.1129 l -2.483,2.427098 c -0.113,-0.6209 -0.17,-1.298198 -0.17,-1.975598 0,-0.0564 -0.056,-0.1129 -0.112,-0.1129 h -1.016 c -0.057,0 -0.113,0.0565 -0.113,0.1129 0,0.3387 0.056,1.523998 0.282,2.596497 0.282,1.2982 1.072,4.4026 3.612,6.2088 0.113,0.0564 0.283,0 0.283,-0.1693 v -1.2982 c 0,-0.0565 0,-0.0565 -0.057,-0.1129 -0.226,-0.112899 -1.016,-0.7338 -1.58,-1.9756 -0.283,-0.6209 -0.565,-1.298199 -0.791,-2.031999 l 2.371,-2.2577 c 0.057,0 0.057,0 0.057,-0.0565 z"
       fill="#1f2f8e"
       id="path60-5"
       style="stroke:#ffffff;stroke-opacity:1;stroke-linejoin:miter;stroke-linecap:square;paint-order:stroke markers fill;stroke-width:2.6;stroke-miterlimit:4;stroke-dasharray:none" />
  </g>
</svg>
