<?xml version="1.0" encoding="UTF-8" standalone="no"?>
<svg
   width="240"
   height="48"
   viewBox="0 0 240 48"
   fill="none"
   version="1.1"
   id="svg3537"
   sodipodi:docname="sansen_logo_white.svg"
   inkscape:version="1.1 (c4e8f9e, 2021-05-24)"
   xmlns:inkscape="http://www.inkscape.org/namespaces/inkscape"
   xmlns:sodipodi="http://sodipodi.sourceforge.net/DTD/sodipodi-0.dtd"
   xmlns="http://www.w3.org/2000/svg"
   xmlns:svg="http://www.w3.org/2000/svg">
  <defs
     id="defs3541" />
  <sodipodi:namedview
     id="namedview3539"
     pagecolor="#ffffff"
     bordercolor="#666666"
     borderopacity="1.0"
     inkscape:pageshadow="2"
     inkscape:pageopacity="0.0"
     inkscape:pagecheckerboard="0"
     showgrid="false"
     inkscape:zoom="5.2958333"
     inkscape:cx="120"
     inkscape:cy="24.075531"
     inkscape:window-width="1440"
     inkscape:window-height="815"
     inkscape:window-x="0"
     inkscape:window-y="25"
     inkscape:window-maximized="0"
     inkscape:current-layer="svg3537" />
  <path
     d="M8.18434 27.4318L10.7808 30.0282C10.7808 30.0282 10.8372 30.0282 10.8372 29.9718C9.76477 28.1091 9.59544 25.174 11.6839 23.1421L34.8259 0H27.8269L8.18434 19.6425C6.03947 21.7874 6.03947 25.2869 8.18434 27.4318Z"
     fill="#1F2F8E"
     id="path3477"
     style="fill:#ffffff" />
  <path
     d="M3.1609 22.3518L5.75733 24.9483C5.75733 24.9483 5.81377 24.9483 5.81377 24.8918C4.74133 23.0292 4.572 20.0941 6.66043 18.0621L24.7225 0H17.7799L3.1609 14.619C1.01603 16.7639 1.01603 20.2634 3.1609 22.3518Z"
     fill="#1F2F8E"
     id="path3479"
     style="fill:#ffffff" />
  <path
     d="M41.7686 25.6256L32.0602 15.9172L30.5362 14.3932L44.873 0H37.9304L13.2079 24.7225C11.063 26.8674 11.063 30.3104 13.2079 32.4553L14.3932 33.6406L0 47.9774H27.1496L41.7686 33.3584C43.9135 31.2135 43.9135 27.7705 41.7686 25.6256ZM28.222 19.8119L15.127 32.8504C14.9577 31.27 15.3528 29.5202 16.7074 28.222L29.746 15.1834C29.9718 16.7074 29.5767 18.4572 28.222 19.8119Z"
     fill="#1F2F8E"
     id="path3481"
     style="fill:#ffffff" />
  <path
     d="M57.2343 9.53905H77.1026C77.3284 7.50706 77.5541 5.53152 77.8928 3.61243H57.2343C52.3236 3.61243 48.3726 7.56351 48.3726 12.4741C48.3726 17.3848 52.3236 21.3359 57.2343 21.3359H69.0311C70.668 21.3359 71.9662 22.6341 71.9662 24.2709C71.9662 25.9078 70.668 27.206 69.0311 27.206H49.1628C48.937 29.238 48.7112 31.2136 48.3726 33.1327H69.0311C73.9417 33.1327 77.8928 29.1816 77.8928 24.2709C77.8928 19.3603 73.9417 15.4092 69.0311 15.4092H57.2343C55.5974 15.4092 54.2992 14.111 54.2992 12.4741C54.2427 10.8373 55.5974 9.53905 57.2343 9.53905Z"
     fill="#1F2F8E"
     id="path3483"
     style="fill:#ffffff" />
  <path
     d="M154.769 9.53905H174.638C174.863 7.50706 175.089 5.53152 175.428 3.61243H154.769C149.859 3.61243 145.908 7.56351 145.908 12.4741C145.908 17.3848 149.859 21.3359 154.769 21.3359H166.566C168.203 21.3359 169.501 22.6341 169.501 24.2709C169.501 25.9078 168.203 27.206 166.566 27.206H146.754C146.529 29.238 146.303 31.2136 145.964 33.1327H166.623C171.533 33.1327 175.484 29.1816 175.484 24.2709C175.484 19.3603 171.533 15.4092 166.623 15.4092H154.826C153.189 15.4092 151.891 14.111 151.891 12.4741C151.834 10.8373 153.133 9.53905 154.769 9.53905Z"
     fill="#1F2F8E"
     id="path3485"
     style="fill:#ffffff" />
  <path
     d="M107.752 3.61243H89.1815C84.2709 3.61243 80.3198 7.56351 80.3198 12.4741V24.2709C80.3198 29.1816 84.2709 33.1327 89.1815 33.1327H101.035C100.696 31.2136 100.414 29.238 100.245 27.206H89.238C87.6011 27.206 86.3029 25.9078 86.3029 24.2709V12.4741C86.3029 10.8373 87.6011 9.53905 89.238 9.53905H103.97V32.3424C106.002 32.5682 107.977 32.794 109.896 33.1327V5.70086C109.896 4.57198 108.937 3.61243 107.752 3.61243Z"
     fill="#1F2F8E"
     id="path3487"
     style="fill:#ffffff" />
  <path
     d="M198.57 3.61243H186.773C181.863 3.61243 177.912 7.56351 177.912 12.4741V24.2709C177.912 29.1816 181.863 33.1327 186.773 33.1327H207.432C207.093 31.2136 206.811 29.238 206.642 27.206H186.773C185.136 27.206 183.838 25.9078 183.838 24.2709V12.4741C183.838 10.8373 185.136 9.53905 186.773 9.53905H198.57C200.207 9.53905 201.505 10.8373 201.505 12.4741V15.4092H186.773C187.112 17.3283 187.394 19.3039 187.564 21.3359H204.44C206.077 21.3359 207.375 20.0376 207.375 18.4008V12.4741C207.432 7.56351 203.481 3.61243 198.57 3.61243Z"
     fill="#1F2F8E"
     id="path3489"
     style="fill:#ffffff" />
  <path
     d="M134.393 3.61243H115.823C114.638 3.61243 113.735 4.57198 113.735 5.70086V33.0762C115.654 32.7375 117.629 32.4553 119.661 32.286V9.53905H134.393C136.03 9.53905 137.328 10.8373 137.328 12.4741V32.3424C139.36 32.5682 141.336 32.794 143.255 33.1327V12.4741C143.255 7.56351 139.304 3.61243 134.393 3.61243Z"
     fill="#1F2F8E"
     id="path3491"
     style="fill:#ffffff" />
  <path
     d="M231.138 3.61243H212.568C211.383 3.61243 210.479 4.57198 210.479 5.70086V33.0762C212.399 32.7375 214.374 32.4553 216.406 32.286V9.53905H231.138C232.775 9.53905 234.073 10.8373 234.073 12.4741V32.3424C236.105 32.5682 238.081 32.794 240 33.1327V12.4741C240 7.56351 236.049 3.61243 231.138 3.61243Z"
     fill="#1F2F8E"
     id="path3493"
     style="fill:#ffffff" />
  <path
     d="M56.8954 44.5908C55.2585 43.2362 54.8634 42.1073 54.8634 42.1073H56.7825C56.839 42.1073 56.839 42.0508 56.839 42.0508V41.3735C56.839 41.3171 56.7825 41.3171 56.7825 41.3171H54.5248V39.9624H56.6132V39.2286C56.6132 39.1722 56.5567 39.1722 56.5567 39.1722H54.5248V37.9869C54.5248 37.9304 54.4683 37.9304 54.4683 37.9304H53.791C53.7345 37.9304 53.7345 37.9869 53.7345 37.9869V39.1722H52.8879C52.9443 38.89 53.0008 38.6078 53.0008 38.2691C53.0008 38.2126 52.9443 38.1562 52.9443 38.1562H52.3234C52.267 38.1562 52.267 38.2126 52.267 38.2126C52.2106 38.4949 52.0412 39.6802 51.4203 40.922C51.4203 40.9784 51.4203 41.0348 51.4768 41.0348H52.2106C52.267 41.0348 52.267 41.0348 52.267 40.9784C52.3234 40.8655 52.4928 40.4704 52.6621 39.9624H53.7345V41.3171H51.4768C51.4203 41.3171 51.4203 41.3735 51.4203 41.3735V41.9944C51.1946 41.7122 50.6866 41.0348 50.5737 40.2446H51.4768C51.5332 40.2446 51.5332 40.1882 51.5332 40.1882V39.5109C51.5332 39.4544 51.4768 39.4544 51.4768 39.4544H50.5737V38.0998C50.5737 38.0433 50.5172 38.0433 50.5172 38.0433H49.8399C49.7835 38.0433 49.7835 38.0998 49.7835 38.0998V39.4544H48.5417C48.4853 39.4544 48.4853 39.5109 48.4853 39.5109V40.1882C48.4853 40.2446 48.5417 40.2446 48.5417 40.2446H49.6706C49.219 42.2202 48.4288 43.1233 48.3159 43.2362C48.3159 43.2362 48.3159 43.2362 48.3159 43.2926V44.5908C48.3159 44.6473 48.3724 44.7037 48.4288 44.6473C48.9368 44.0264 49.3884 43.2362 49.6706 42.5588V46.2277C49.6706 46.2841 49.727 46.2841 49.727 46.2841H50.4043C50.4608 46.2841 50.4608 46.2277 50.4608 46.2277V42.1073C50.6866 42.5588 50.9688 43.0104 51.3639 43.4055C51.4203 43.4619 51.4768 43.4055 51.4768 43.349V42.1637H53.3394C53.3394 42.1637 52.9443 43.2926 51.3075 44.6473L51.251 44.7037C51.251 44.873 51.251 45.3246 51.251 45.6068C51.251 45.6633 51.3075 45.7197 51.3639 45.6633C51.759 45.4375 52.8314 44.5908 53.6217 43.1797V46.2841C53.6217 46.3406 53.6781 46.3406 53.6781 46.3406H54.3554C54.4119 46.3406 54.4119 46.2841 54.4119 46.2841V43.1233C55.2021 44.5908 56.331 45.381 56.6696 45.6068C56.7261 45.6633 56.7825 45.6068 56.7825 45.5504V44.6473C56.9519 44.6473 56.8954 44.5908 56.8954 44.5908Z"
     fill="#1F2F8E"
     id="path3495"
     style="fill:#ffffff" />
  <path
     d="M62.5395 44.2522C61.8058 44.4215 61.1284 44.5344 60.5076 44.5908V42.1637H62.088C62.1444 42.1637 62.1444 42.1073 62.1444 42.1073V41.43C62.1444 41.3735 62.088 41.3735 62.088 41.3735H58.1369C58.0805 41.3735 58.0805 41.43 58.0805 41.43V42.1073C58.0805 42.1637 58.1369 42.1637 58.1369 42.1637H59.6609V44.7037C58.7578 44.8166 58.1934 44.8731 57.9676 44.8731C57.9111 44.8731 57.9111 44.9295 57.9111 44.9295V45.7197C57.9111 45.7762 57.9676 45.8326 58.024 45.7762C58.4756 45.7762 60.2818 45.6068 62.596 45.0988C62.6524 45.0988 62.6524 45.0424 62.6524 45.0424V44.3086C62.6524 44.3086 62.596 44.2522 62.5395 44.2522Z"
     fill="#1F2F8E"
     id="path3497"
     style="fill:#ffffff" />
  <path
     d="M65.9829 44.5908C65.7571 44.9859 65.362 45.2681 65.1363 45.2681C64.5154 45.2681 64.1203 44.1392 63.9509 43.6312C63.7816 43.1232 63.4994 42.0508 63.4994 40.1317V40.0188H65.5314C65.5878 40.0188 65.5878 39.9624 65.5878 39.9624V39.285C65.5878 39.2286 65.5314 39.2286 65.5314 39.2286H63.4994V38.0433C63.4994 37.9868 63.4429 37.9868 63.4429 37.9868H62.6527C62.5963 37.9868 62.5963 38.0433 62.5963 38.0433V39.2286H57.9114C57.855 39.2286 57.855 39.285 57.855 39.285V39.9624C57.855 40.0188 57.9114 40.0188 57.9114 40.0188H62.5963C62.5963 41.3735 62.8221 43.6312 63.4429 44.9294C64.0638 46.2276 64.854 46.3405 65.3056 46.2841C65.7007 46.2276 66.0958 45.8325 66.1523 45.7761V45.7196V44.7037C66.0958 44.5343 65.9829 44.5343 65.9829 44.5908Z"
     fill="#1F2F8E"
     id="path3499"
     style="fill:#ffffff" />
  <path
     d="M65.1363 38.9465C65.1363 38.9465 65.1928 39.0029 65.2492 39.0029H66.0394C66.0959 39.0029 66.1523 38.9465 66.1523 38.9465C65.9265 38.5514 65.5879 38.0998 65.475 37.9305C65.475 37.9305 65.4185 37.874 65.3621 37.874H64.5719C64.5154 37.874 64.459 37.9305 64.459 37.9305C64.6283 38.1562 64.9105 38.5514 65.1363 38.9465Z"
     fill="#1F2F8E"
     id="path3501"
     style="fill:#ffffff" />
  <path
     d="M75.2396 40.3011C74.9009 40.1882 73.3205 39.5673 72.5302 38.8335C71.9094 38.2691 71.74 38.0433 71.6836 37.9869L71.6271 37.9304H70.724C70.724 37.9304 70.6676 37.9304 70.6676 37.9869C70.6111 38.0433 70.4418 38.2691 69.8209 38.8335C69.0307 39.5673 67.3938 40.1882 67.1116 40.3011C67.0552 40.3011 67.0552 40.3575 67.0552 40.3575V41.2042C67.0552 41.2606 67.1116 41.3171 67.1681 41.2606C67.6196 41.0913 68.1276 40.8655 68.8614 40.5268V41.1477C68.8614 41.2042 68.9178 41.2042 68.9178 41.2042H73.5462C73.6027 41.2042 73.6027 41.1477 73.6027 41.1477V40.5268C74.28 40.922 74.8444 41.1477 75.296 41.2606C75.3524 41.2606 75.4089 41.2606 75.4089 41.2042V40.3575C75.296 40.3575 75.2396 40.3011 75.2396 40.3011ZM68.8614 40.414C69.0872 40.2446 69.3694 40.1317 69.6516 39.906C70.2725 39.5109 70.724 39.0029 71.0627 38.6078C71.4014 39.0029 71.8529 39.4544 72.4738 39.906C72.756 40.0753 73.0382 40.2446 73.264 40.414H68.8614Z"
     fill="#1F2F8E"
     id="path3503"
     style="fill:#ffffff" />
  <path
     d="M74.3365 44.6472C74.0542 44.0828 73.772 43.5748 73.7156 43.4619L73.6591 43.4055H72.8125C72.756 43.4055 72.6996 43.4619 72.756 43.5184C72.8689 43.7441 73.0947 44.1392 73.3769 44.5908C73.3769 44.6472 73.4334 44.7037 73.4334 44.7037C71.9658 44.8166 70.6676 44.873 69.6516 44.9295L70.5547 42.9539H74.9009C74.9573 42.9539 74.9573 42.8975 74.9573 42.8975V42.2201C74.9573 42.1637 74.9009 42.1637 74.9009 42.1637H67.3938C67.3374 42.1637 67.3374 42.2201 67.3374 42.2201V42.8975C67.3374 42.9539 67.3938 42.9539 67.3938 42.9539H69.5387L68.5792 44.9859C68.0147 44.9859 67.6196 45.0423 67.4503 45.0423C67.3938 45.0423 67.3938 45.0988 67.3938 45.0988V45.889C67.3938 45.9454 67.4503 45.9454 67.5067 45.9454C68.1276 45.9454 72.0223 45.7761 73.8285 45.4939C73.9414 45.7197 73.9978 45.889 74.0542 46.1148C74.0542 46.1712 74.1107 46.1712 74.1107 46.1712H75.0138C75.0702 46.1712 75.1267 46.1148 75.0702 46.0583C74.8445 45.7197 74.6187 45.2681 74.3365 44.6472Z"
     fill="#1F2F8E"
     id="path3505"
     style="fill:#ffffff" />
  <path
     d="M84.5529 45.2117H82.6338V41.0912H84.2707C84.3271 41.0912 84.3836 41.0348 84.3836 40.9783V40.2446C84.3836 40.1881 84.3271 40.1317 84.2707 40.1317H82.6338V38.0433C82.6338 37.9868 82.5774 37.9868 82.5774 37.9868H81.8436C81.7872 37.9868 81.7872 38.0433 81.7872 38.0433V40.1317H80.1503C80.0938 40.1317 80.0374 40.1881 80.0374 40.2446V40.9783C80.0374 41.0348 80.0938 41.0912 80.1503 41.0912H81.7307V45.2117H79.5294C79.4729 45.2117 79.4165 45.2681 79.4165 45.3245V46.0583C79.4165 46.1148 79.4729 46.1712 79.5294 46.1712H81.7307H82.6338H84.5529C84.6094 46.1712 84.6658 46.1148 84.6658 46.0583V45.3245C84.6094 45.2681 84.6094 45.2117 84.5529 45.2117Z"
     fill="#1F2F8E"
     id="path3507"
     style="fill:#ffffff" />
  <path
     d="M80.3198 43.8006C80.3763 43.857 80.4327 43.8006 80.4327 43.7441V42.841C80.4327 42.841 80.4327 42.7846 80.3763 42.7846L78.8523 41.7121C79.5861 40.809 79.9247 40.1317 79.9812 39.9624C79.9812 39.9624 79.9812 39.9624 79.9812 39.9059V39.1721C79.9812 39.1157 79.9247 39.1157 79.9247 39.1157H78.6265V38.0433C78.6265 37.9868 78.5701 37.9868 78.5701 37.9868H77.8927C77.8363 37.9868 77.8363 38.0433 77.8363 38.0433V39.1157H76.3687C76.3123 39.1157 76.3123 39.1721 76.3123 39.1721V39.8495C76.3123 39.9059 76.3687 39.9059 76.3687 39.9059H77.8363H78.6829H79.0781C78.683 40.5832 78.3443 40.9783 77.8927 41.5428C77.4976 42.0508 76.4816 42.7846 76.3123 42.8974L76.2559 42.9539V43.9134C76.2559 43.9699 76.3123 44.0263 76.3687 43.9699C76.7074 43.8006 77.159 43.5183 77.7798 42.841V46.1712C77.7798 46.2276 77.8363 46.2276 77.8363 46.2276H78.5136C78.5701 46.2276 78.5701 46.1712 78.5701 46.1712V42.5588L80.3198 43.8006Z"
     fill="#1F2F8E"
     id="path3509"
     style="fill:#ffffff" />
  <path
     d="M118.984 38.5513H117.855V36.858C117.855 36.8016 117.798 36.7451 117.742 36.7451H116.782C116.726 36.7451 116.669 36.8016 116.669 36.858V38.5513H111.138V36.858C111.138 36.8016 111.081 36.7451 111.025 36.7451H110.065C110.009 36.7451 109.953 36.8016 109.953 36.858V38.5513H108.937C108.88 38.5513 108.824 38.6078 108.824 38.6642V39.6238C108.824 39.6802 108.88 39.7367 108.937 39.7367H110.009V43.97C110.009 45.4375 110.969 46.6228 113.001 46.6228H118.363C118.419 46.6228 118.476 46.5664 118.476 46.5099V45.5504C118.476 45.4939 118.419 45.4375 118.363 45.4375H113.283C111.872 45.4375 111.138 44.6473 111.138 43.6877V39.6802H116.669V41.5429C116.669 41.8815 116.387 42.1637 116.049 42.1637H114.863C114.807 42.1637 114.75 42.2202 114.75 42.2766V43.1797C114.75 43.2362 114.807 43.2926 114.863 43.2926H116.331C117.121 43.2926 117.798 42.6153 117.798 41.8251V39.7367H118.927C118.984 39.7367 119.04 39.6802 119.04 39.6238V38.6642C119.097 38.6078 119.04 38.5513 118.984 38.5513Z"
     fill="#1F2F8E"
     id="path3511"
     style="fill:#ffffff" />
  <path
     d="M86.9233 43.1796C86.9233 44.3649 87.3185 46.5098 90.9309 46.5098H95.2206C95.2771 46.5098 95.3335 46.4534 95.3335 46.3969V45.4374C95.3335 45.3809 95.2771 45.3245 95.2206 45.3245H90.818C89.1247 45.3245 88.1651 44.3085 88.1651 43.1232V42.2201C88.1651 42.1636 88.1087 42.1072 88.0522 42.1072H87.0362C86.9798 42.1072 86.9233 42.1636 86.9233 42.2201V43.1796Z"
     fill="#1F2F8E"
     id="path3513"
     style="fill:#ffffff" />
  <path
     d="M96.0674 38.5512H93.1888C92.9066 37.761 92.7937 37.1401 92.7373 36.9144C92.7373 36.8579 92.6808 36.8579 92.6244 36.8579H91.6084C91.5519 36.8579 91.4955 36.9144 91.4955 36.9708C91.6084 37.5352 91.7213 38.0432 91.8906 38.5512H86.5284C86.472 38.5512 86.4155 38.6077 86.4155 38.6641V39.6237C86.4155 39.6801 86.472 39.7366 86.5284 39.7366H92.2857C93.0759 41.7685 94.0919 43.1232 94.3177 43.4054L94.3741 43.4619H95.503C95.6159 43.4619 95.6723 43.349 95.6159 43.2361C94.7128 42.1636 94.0355 40.9219 93.5839 39.793H96.0674C96.1239 39.793 96.1803 39.7366 96.1803 39.6801V38.7206C96.1803 38.6077 96.1239 38.5512 96.0674 38.5512Z"
     fill="#1F2F8E"
     id="path3515"
     style="fill:#ffffff" />
  <path
     d="M107.695 39.8495H106.679C106.622 39.8495 106.566 39.906 106.566 39.9624C106.566 40.3575 106.51 41.9944 106.284 43.3491C106.058 44.6473 105.381 45.2682 104.76 45.4375C104.026 45.6068 103.349 45.0424 103.349 44.3086V41.43C103.349 40.1882 102.954 39.906 102.502 39.7367C102.107 39.5109 101.317 39.5109 100.583 40.0753C100.301 40.3011 100.019 40.5833 99.7927 40.8091C100.131 38.8335 100.414 37.3096 100.527 36.858C100.527 36.8016 100.47 36.7451 100.414 36.7451H99.3976C99.3412 36.7451 99.2847 36.8016 99.2847 36.8016C99.1718 37.4789 98.2687 42.1073 97.7607 46.5664C97.7607 46.6228 97.8172 46.6793 97.8736 46.6793H98.8896C98.9461 46.6793 99.0025 46.6228 99.0025 46.5664C99.1718 45.2117 99.3412 43.8571 99.5105 42.6153C100.357 41.3735 100.922 40.9784 101.373 40.8655C101.825 40.7526 102.107 41.0913 102.107 41.43C102.107 41.7686 102.107 42.446 102.107 44.1393C102.107 45.8326 102.784 46.6793 104.421 46.6793C106.058 46.6793 106.679 45.7762 107.243 44.3651C107.751 43.0668 107.808 40.5269 107.808 39.9624C107.808 39.906 107.751 39.8495 107.695 39.8495Z"
     fill="#1F2F8E"
     id="path3517"
     style="fill:#ffffff" />
  <path
     d="M130.273 39.8495H129.257C129.2 39.8495 129.144 39.906 129.144 39.9624C129.144 40.3575 129.087 41.9944 128.861 43.3491C128.636 44.6473 127.958 45.2682 127.337 45.4375C126.604 45.6068 125.926 45.0424 125.926 44.3086V41.43C125.926 40.1882 125.531 39.906 125.08 39.7367C124.685 39.5109 123.894 39.5109 123.161 40.0753C122.878 40.3011 122.596 40.5833 122.37 40.8091C122.709 38.8335 122.991 37.3096 123.104 36.858C123.104 36.8016 123.048 36.7451 122.991 36.7451H121.975C121.919 36.7451 121.862 36.8016 121.862 36.8016C121.749 37.4789 120.846 42.1073 120.338 46.5664C120.338 46.6228 120.395 46.6793 120.451 46.6793H121.467C121.524 46.6793 121.58 46.6228 121.58 46.5664C121.749 45.2117 121.919 43.8571 122.088 42.6153C122.935 41.3735 123.499 40.9784 123.951 40.8655C124.402 40.7526 124.685 41.0913 124.685 41.43C124.685 41.7686 124.685 42.446 124.685 44.1393C124.685 45.8326 125.362 46.6793 126.999 46.6793C128.636 46.6793 129.257 45.7762 129.821 44.3651C130.329 43.0668 130.385 40.5269 130.385 39.9624C130.385 39.906 130.329 39.8495 130.273 39.8495Z"
     fill="#1F2F8E"
     id="path3519"
     style="fill:#ffffff" />
  <path
     d="M142.578 37.9304C142.634 37.9304 142.69 37.874 142.69 37.8175V37.0273C142.69 36.9709 142.634 36.9144 142.578 36.9144H139.755V36.2936C139.755 36.2371 139.699 36.1807 139.642 36.1807H138.739C138.683 36.1807 138.626 36.2371 138.626 36.2936V36.9144H135.804C135.748 36.9144 135.691 36.9709 135.691 37.0273V37.8175C135.691 37.874 135.748 37.9304 135.804 37.9304H138.626V38.4384H136.087C136.03 38.4384 135.974 38.4949 135.974 38.5513V39.3415C135.974 39.398 136.03 39.4544 136.087 39.4544H138.626V39.9624H135.804C135.748 39.9624 135.691 40.0189 135.691 40.0753V40.8655C135.691 40.922 135.748 40.9784 135.804 40.9784H138.626H139.755H142.578C142.634 40.9784 142.69 40.922 142.69 40.8655V40.0753C142.69 40.0189 142.634 39.9624 142.578 39.9624H139.755V39.4544H142.295C142.352 39.4544 142.408 39.398 142.408 39.3415V38.5513C142.408 38.4949 142.352 38.4384 142.295 38.4384H139.755V37.9304H142.578V37.9304Z"
     fill="#1F2F8E"
     id="path3521"
     style="fill:#ffffff" />
  <path
     d="M142.295 41.4299H141.279H137.159H136.143C136.086 41.4299 136.03 41.4864 136.03 41.5428V42.4459V42.8975V43.9135V44.365V45.381V46.8486C136.03 46.905 136.086 46.9614 136.143 46.9614H137.046C137.102 46.9614 137.159 46.905 137.159 46.8486V45.3246H141.279V45.6632C141.279 45.8326 141.166 45.9455 140.997 45.9455H140.263C140.207 45.9455 140.15 46.0019 140.15 46.0583V46.8486C140.15 46.905 140.207 46.9614 140.263 46.9614H141.336C141.956 46.9614 142.408 46.4534 142.408 45.889V45.3246V44.3086V43.857V42.8975V42.4459V41.5428C142.408 41.4864 142.352 41.4299 142.295 41.4299ZM141.279 44.3086H137.159V43.857H141.279V44.3086ZM137.102 42.8975V42.4459H141.223V42.8975H137.102Z"
     fill="#1F2F8E"
     id="path3523"
     style="fill:#ffffff" />
  <path
     d="M132.079 37.7046L135.07 38.777C135.183 38.8335 135.296 38.7206 135.296 38.6077V37.7611C135.296 37.7046 135.24 37.6482 135.183 37.5917L132.192 36.5193C132.079 36.4628 131.966 36.5757 131.966 36.6886V37.5353C131.966 37.5917 132.022 37.6482 132.079 37.7046Z"
     fill="#1F2F8E"
     id="path3525"
     style="fill:#ffffff" />
  <path
     d="M132.022 40.2446L135.07 41.3735C135.127 41.3735 135.24 41.3735 135.24 41.2606V40.1882L132.135 39.1157C132.022 39.0593 131.966 39.1722 131.966 39.2286V40.1317C131.966 40.1882 132.022 40.2446 132.022 40.2446Z"
     fill="#1F2F8E"
     id="path3527"
     style="fill:#ffffff" />
  <path
     d="M135.409 42.1637H134.393C134.337 42.1637 134.28 42.2201 134.28 42.2766C134.224 42.5588 134.167 42.9539 134.111 43.1797C133.942 43.6312 133.772 44.1957 133.208 44.873C132.869 45.3246 132.361 45.6068 132.079 45.7197C132.022 45.7197 132.022 45.7761 132.022 45.8326V46.8486C132.022 46.9614 132.135 47.0179 132.248 46.9614C133.264 46.5663 134.167 45.889 134.788 44.8166C135.353 43.9135 135.522 42.7846 135.635 42.2201C135.522 42.2201 135.466 42.1637 135.409 42.1637Z"
     fill="#1F2F8E"
     id="path3529"
     style="fill:#ffffff" />
  <path
     d="M147.77 38.7206C147.77 38.6641 147.714 38.6077 147.657 38.6077H144.101C144.045 38.6077 143.988 38.6641 143.988 38.7206V39.7365C143.988 39.793 144.045 39.8494 144.101 39.8494H146.585C146.585 41.5428 146.246 42.4459 145.569 43.6876C145.004 44.7036 144.27 45.2681 144.045 45.381C143.988 45.381 143.988 45.4374 143.988 45.4938V46.6227C143.988 46.7356 144.101 46.7921 144.214 46.7356C145.512 46.0583 147.77 43.7441 147.77 39.8494V38.7206Z"
     fill="#1F2F8E"
     id="path3531"
     style="fill:#ffffff" />
  <path
     d="M149.915 36.5193H148.843C148.786 36.5193 148.73 36.5757 148.73 36.6322V45.2681C148.73 45.4939 148.504 45.7197 148.278 45.7197H147.093C147.036 45.7197 146.98 45.7761 146.98 45.8325V46.8485C146.98 46.905 147.036 46.9614 147.093 46.9614H148.56C149.351 46.9614 150.028 46.3405 150.028 45.5503V36.6322C150.028 36.5757 149.972 36.5193 149.915 36.5193Z"
     fill="#1F2F8E"
     id="path3533"
     style="fill:#ffffff" />
  <path
     d="M154.713 38.8899V37.6482C154.713 37.5353 154.543 37.4224 154.43 37.5353L151.947 39.9624C151.834 39.3415 151.777 38.6642 151.777 37.9868C151.777 37.9304 151.721 37.8739 151.665 37.8739H150.649C150.592 37.8739 150.536 37.9304 150.536 37.9868C150.536 38.3255 150.592 39.5108 150.818 40.5833C151.1 41.8815 151.89 44.9859 154.43 46.7921C154.543 46.8485 154.713 46.7921 154.713 46.6228V45.3246C154.713 45.2681 154.713 45.2681 154.656 45.2117C154.43 45.0988 153.64 44.4779 153.076 43.2361C152.793 42.6152 152.511 41.9379 152.285 41.2041L154.656 38.9464C154.713 38.9464 154.713 38.9464 154.713 38.8899Z"
     fill="#1F2F8E"
     id="path3535"
     style="fill:#ffffff" />
</svg>
